<svg width="16" height="9" viewBox="0 0 16 9" fill="none" xmlns="http://www.w3.org/2000/svg">
<path id="Arrow 3" d="M8.99994 7C8.99994 6.44772 8.55222 6 7.99994 6C7.44765 6 6.99994 6.44772 6.99994 7L8.99994 7ZM7.29283 8.70711C7.68336 9.09763 8.31652 9.09763 8.70705 8.70711L15.071 2.34315C15.4615 1.95262 15.4615 1.31946 15.071 0.928932C14.6805 0.538408 14.0473 0.538408 13.6568 0.928932L7.99994 6.58579L2.34308 0.928932C1.95256 0.538408 1.3194 0.538408 0.928871 0.928932C0.538347 1.31946 0.538347 1.95262 0.928871 2.34315L7.29283 8.70711ZM6.99994 7L6.99994 8L8.99994 8L8.99994 7L6.99994 7Z" fill="#2A2A2A" fill-opacity="0.48"/>
</svg>
