<svg width="56" height="90" viewBox="0 0 56 90" fill="none" xmlns="http://www.w3.org/2000/svg">
<path d="M45.75 78.625C46.4583 79.5833 47.2083 80.5417 48 81.5C48.1667 81.3333 48.6875 81.2917 49.5625 81.375C50.3542 81.4167 50.7708 81.25 50.8125 80.875C50.6042 80.7083 50.2708 80.5417 49.8125 80.375C49.1875 80.1667 48.8333 80.0417 48.75 80C48.625 80 48.4583 80.1667 48.25 80.5C48.0833 80.75 47.9375 80.8333 47.8125 80.75V79.6875C46.5625 78.9375 45.875 78.5833 45.75 78.625ZM50.5 82.6875C50.5417 82.1042 50.0417 81.7917 49 81.75C49.125 82.0833 49.3125 82.3542 49.5625 82.5625C49.8958 82.8125 50.2083 82.8542 50.5 82.6875ZM49.75 83.8125C49.875 83.9792 50.0417 84.0417 50.25 84C50.2917 83.75 50.2083 83.5417 50 83.375C49.7917 83.2083 49.625 83.2292 49.5 83.4375C49.5417 83.4375 49.625 83.5625 49.75 83.8125ZM44.25 76.5625C44.25 76.7292 44.4375 76.9583 44.8125 77.25C44.8125 77.125 44.8958 77.0208 45.0625 76.9375C45.2708 76.8542 45.3542 76.7292 45.3125 76.5625H44.25ZM44.25 79.3125C44.3333 79.3542 44.4375 79.3333 44.5625 79.25C44.6042 79 44.5208 78.8542 44.3125 78.8125C44.0625 78.7708 43.9375 78.8542 43.9375 79.0625C43.9792 79.1042 44.0833 79.1875 44.25 79.3125ZM44.0625 72.1875H43.625C43.4583 72.3958 43.375 72.6458 43.375 72.9375C43.4167 73.2292 43.6042 73.375 43.9375 73.375C44.1042 73.3333 44.2083 73.1667 44.25 72.875C44.2917 72.5833 44.2292 72.3542 44.0625 72.1875ZM41.375 77.9375C41.6667 78.1875 42.0208 78.2708 42.4375 78.1875C42.4792 77.8542 42.3333 77.625 42 77.5C41.5417 77.375 41.2917 77.25 41.25 77.125C41.0833 77.4167 41.125 77.6875 41.375 77.9375ZM40.8125 68.75V69.375C41.1458 69.4167 41.2917 69.2083 41.25 68.75H40.8125ZM40.1875 71.625C39.8958 72.6667 40 73.1458 40.5 73.0625C40.625 72.8958 40.6667 72.625 40.625 72.25C40.5833 71.8333 40.4375 71.625 40.1875 71.625ZM39.25 76.8125C39.1667 76.9375 39.125 77.0417 39.125 77.125C39.375 77.1667 39.625 77.1667 39.875 77.125C39.8333 76.6667 39.6458 76.4792 39.3125 76.5625C39.3125 76.6458 39.2917 76.7292 39.25 76.8125ZM39.4375 71.125C39.1458 71.0833 38.8958 71.1458 38.6875 71.3125C38.6458 71.0625 38.6875 71.375 38.8125 72.25C38.8542 72.5833 39.0208 72.7708 39.3125 72.8125C39.3125 72.8125 39.3542 72.25 39.4375 71.125ZM39.125 69.0625C39.2083 68.6875 39.125 68.4792 38.875 68.4375C38.75 68.8542 38.6875 69.0625 38.6875 69.0625H39.125ZM37.1875 67.375C37.6042 67.6667 38.0625 67.7708 38.5625 67.6875C38.6042 67.3958 38.4167 67.2083 38 67.125C37.5417 67.0417 37.2708 67.125 37.1875 67.375ZM37.8125 70.875C37.4375 71.4583 37.5417 72.0417 38.125 72.625C38.25 72.375 38.2917 72.0417 38.25 71.625C38.25 71.125 38.1042 70.875 37.8125 70.875ZM36.375 68.8125C36.5 69.1875 36.5208 69.4583 36.4375 69.625C36.9375 69.9583 37.3958 70.125 37.8125 70.125C38.1458 69.1667 38.0417 68.5625 37.5 68.3125C37.2917 68.3125 37.2292 68.4583 37.3125 68.75C37.3958 69.0833 37.3542 69.2917 37.1875 69.375C37.1042 69.2917 37.0625 69.0833 37.0625 68.75C37.0625 68.4167 37.0208 68.2083 36.9375 68.125H36.4375C36.3125 68.2917 36.2917 68.5208 36.375 68.8125ZM36.625 72.3125C36.75 72.3958 36.8542 72.4583 36.9375 72.5C37.1875 72.1667 37.0833 71.7708 36.625 71.3125C36.375 71.7708 36.2708 72.0625 36.3125 72.1875C36.3958 72.2292 36.5 72.2708 36.625 72.3125ZM35.875 76.3125C36 76.5208 36.1875 76.6042 36.4375 76.5625C36.4792 76.2708 36.3958 76.0208 36.1875 75.8125C35.9792 75.5625 35.7708 75.5625 35.5625 75.8125C35.5208 75.7708 35.625 75.9375 35.875 76.3125ZM36 70.5625H35.4375C35.2708 70.9375 35.2083 71.3125 35.25 71.6875C35.2917 72.1458 35.5 72.3542 35.875 72.3125C36.0417 72.2292 36.1458 71.9583 36.1875 71.5C36.2292 71.0833 36.1667 70.7708 36 70.5625ZM33.625 75.1875C33.875 75.8125 34.1667 76.1667 34.5 76.25C34.5 76.25 34.6667 76.1458 35 75.9375C35.2083 75.8125 35.2917 75.6042 35.25 75.3125C34.125 75.2292 33.5833 75.1875 33.625 75.1875ZM33.625 70.25C33.2083 70.1667 33 70.125 33 70.125C32.5833 71.375 32.6875 71.9583 33.3125 71.875C33.3125 71.7083 33.3542 71.4792 33.4375 71.1875C33.5208 70.8125 33.5833 70.5 33.625 70.25ZM30.9375 61.75C31.1458 64.1667 31.3333 65.75 31.5 66.5C31.625 66.5 31.8542 66.5833 32.1875 66.75C32.4792 66.8333 32.75 66.8542 33 66.8125C31.3333 63.1875 30.6458 61.5 30.9375 61.75ZM31.4375 70.875C31.5208 71.3333 31.5 71.6667 31.375 71.875C31.8333 72 32.0833 71.7917 32.125 71.25C32.1667 70.7917 32.125 70.3542 32 69.9375H31.5C31.375 70.1458 31.3542 70.4583 31.4375 70.875ZM31.375 73.0625C31.4167 72.9792 31.5208 72.9375 31.6875 72.9375C31.7292 72.5625 31.4792 72.3542 30.9375 72.3125C30.9792 72.7292 31.125 72.9792 31.375 73.0625ZM31.0625 71.875C30.9375 71.3333 30.8958 70.6458 30.9375 69.8125C30.3125 69.6458 30.0417 70 30.125 70.875C30.2083 71.75 30.5208 72.0833 31.0625 71.875ZM29.25 78.8125C29.375 79.0208 29.5833 79.1042 29.875 79.0625C29.875 78.9375 29.8125 78.7708 29.6875 78.5625C29.5625 78.3958 29.5208 78.2083 29.5625 78C29.6458 78.0417 29.8125 78.1458 30.0625 78.3125C30.2708 78.3958 30.4583 78.4583 30.625 78.5C30.5833 78.2083 30.4375 77.75 30.1875 77.125C29.8125 77.3333 29.3542 77.7292 28.8125 78.3125C28.8125 78.3125 28.9583 78.4792 29.25 78.8125ZM28.875 79.1875C28.75 79.0208 28.5833 78.9375 28.375 78.9375C28.375 79.1458 28.5 79.3333 28.75 79.5C29 79.6667 29.1667 79.6667 29.25 79.5C29.1667 79.5 29.0417 79.3958 28.875 79.1875ZM28.6875 80.4375C28.3958 79.8125 28.0833 79.5 27.75 79.5C27.7917 79.7917 28.1042 80.1042 28.6875 80.4375ZM28.0625 80.6875C27.8958 80.6042 27.75 80.5625 27.625 80.5625C27.5 80.8125 27.5833 80.9792 27.875 81.0625C28.1667 81.1042 28.3333 81.0417 28.375 80.875C28.2917 80.875 28.1875 80.8125 28.0625 80.6875ZM27.5 81.1875C27.3333 83.0208 27.2708 84.0208 27.3125 84.1875C27.3542 84.0208 27.5 83.625 27.75 83C27.9167 82.5417 28.0208 82.125 28.0625 81.75C27.9375 81.5 27.75 81.3125 27.5 81.1875ZM25.6875 80.25C25.2292 80.5 25.0833 80.9167 25.25 81.5C25.875 81.5 26.4167 81.1458 26.875 80.4375C26.5 80.0625 26.1042 80 25.6875 80.25ZM24.8125 69.0625C24.4792 69.3958 24.4792 70.0833 24.8125 71.125C25.2708 70.9583 25.5208 70.9167 25.5625 71C25.3542 70.9167 25.25 70.5625 25.25 69.9375C25.25 69.3542 25.1042 69.0625 24.8125 69.0625ZM23.6875 75.125C23.1875 75.125 22.8958 75.25 22.8125 75.5C23.0625 75.625 23.3958 75.6875 23.8125 75.6875C24.2708 75.6458 24.5417 75.5208 24.625 75.3125C24.4167 75.1875 24.1042 75.125 23.6875 75.125ZM21.8125 70.875C21.4375 70.5 21.2292 70.5833 21.1875 71.125C21.8542 71.375 22.3125 71.2083 22.5625 70.625C22.7708 70.0833 22.7708 69.4167 22.5625 68.625C22.0625 68.5833 21.7083 68.7708 21.5 69.1875C21.7083 69.3542 21.8542 69.6042 21.9375 69.9375C22.0208 70.3125 21.9792 70.625 21.8125 70.875ZM21.0625 78.9375C21.1042 79.1875 21.2917 79.2917 21.625 79.25C21.625 79.25 21.6458 79.0417 21.6875 78.625C21.6875 78.375 21.5833 78.2708 21.375 78.3125C21.1667 78.4792 21.0625 78.6875 21.0625 78.9375ZM21.1875 86.4375C21.0208 86.9375 20.9792 87.2292 21.0625 87.3125C21.4375 87.4375 21.6458 87.3125 21.6875 86.9375C21.7292 86.5208 21.5625 86.3542 21.1875 86.4375ZM21.1875 49.5C20.8958 49.625 20.6458 49.7083 20.4375 49.75C20.4375 50.0417 20.5 50.3333 20.625 50.625C20.7917 51.0417 20.875 51.2917 20.875 51.375C21.2917 51.375 21.4792 51.1458 21.4375 50.6875C21.3542 50.1042 21.375 49.75 21.5 49.625C21.7083 49.625 21.8542 49.8125 21.9375 50.1875C21.9792 50.5625 22.0833 50.7708 22.25 50.8125C22.375 50.6875 22.625 50.5417 23 50.375C23.375 50.2083 23.625 50.0417 23.75 49.875C23.75 49.75 23.6042 49.25 23.3125 48.375C22.6042 48.3333 22.3542 48.5833 22.5625 49.125C22.7708 49.7083 22.7708 50.0625 22.5625 50.1875C22.6458 50.2292 22.4375 49.875 21.9375 49.125C21.7708 49.1667 21.5208 49.2917 21.1875 49.5ZM20.125 69.375H19.6875C19.6042 69.7083 19.6667 70.1042 19.875 70.5625C20.0833 71.0625 20.375 71.3542 20.75 71.4375C20.625 70.4375 20.4167 69.75 20.125 69.375ZM20.125 68.4375C20.7083 68.3542 20.8125 67.8125 20.4375 66.8125C19.9792 66.7292 19.75 66.9375 19.75 67.4375C19.7083 67.9375 19.8333 68.2708 20.125 68.4375ZM20.125 50.375H19.5625C19.8958 51.25 20.1458 51.6875 20.3125 51.6875C20.3542 51.4792 20.3333 51.25 20.25 51C20.1667 50.6667 20.125 50.4583 20.125 50.375ZM18.875 51.3125C18.9167 51.5208 19.0417 51.6458 19.25 51.6875C19.25 51.6875 19.25 51.4792 19.25 51.0625C19.25 50.8125 19.1458 50.7292 18.9375 50.8125C18.8125 50.9375 18.7917 51.1042 18.875 51.3125ZM18.625 53.1875C18.375 53.7292 18.2292 53.9792 18.1875 53.9375C18.4792 54.0208 18.7083 53.9167 18.875 53.625C19 53.375 18.9167 53.2292 18.625 53.1875ZM23.875 50.625C23.375 50.75 23.125 50.9583 23.125 51.25C23.3333 51.25 23.5833 51.0417 23.875 50.625ZM23.125 70.0625C23.1667 70.6458 23.375 70.9583 23.75 71C24 70.9167 24.1042 70.5625 24.0625 69.9375C24.0625 69.4375 24 69.0417 23.875 68.75H23.3125C23.1458 69.2083 23.0833 69.6458 23.125 70.0625ZM23.125 68.3125C23.875 68.2708 24.2708 68.2083 24.3125 68.125C24.2292 67.9583 24.1875 67.5417 24.1875 66.875C24.1875 66.25 24.0833 65.875 23.875 65.75H23.3125C23.0625 66.8333 23 67.6875 23.125 68.3125ZM25.375 68.3125C25.5 68.1042 25.3542 67.3542 24.9375 66.0625C24.9375 66.0625 24.9167 66.5208 24.875 67.4375C24.8333 67.8958 25 68.1875 25.375 68.3125ZM27.625 76.25C27.6667 76.0417 27.7083 75.9375 27.75 75.9375C27.75 75.5208 27.4792 75.3333 26.9375 75.375C27.1875 75.375 26.7708 75.4583 25.6875 75.625C25.9375 75.9167 26.5833 76.125 27.625 76.25ZM26.875 69.375C26.75 69.25 26.4583 69.1875 26 69.1875C25.875 69.5208 25.8125 69.9375 25.8125 70.4375V71.4375H26.5625C26.6875 71.2708 26.75 70.9375 26.75 70.4375C26.75 69.8958 26.7917 69.5417 26.875 69.375ZM26.4375 49.5C26.4792 49.125 26.4375 48.8542 26.3125 48.6875C26.0625 49.5625 25.9583 50.0208 26 50.0625C26.2083 50.0625 26.3542 49.875 26.4375 49.5ZM26.25 67.625C26.2917 68.3333 26.5625 68.6667 27.0625 68.625C27.2708 67.25 27.0625 66.3958 26.4375 66.0625C26.2708 66.6458 26.2083 67.1667 26.25 67.625ZM27.3125 29.6875C27.5625 28.9375 27.625 28.5417 27.5 28.5C27.5 28.4167 27.375 28.6458 27.125 29.1875C27 29.4375 27.0625 29.6042 27.3125 29.6875ZM27.5 49.3125C27.5417 49.1042 27.4375 49 27.1875 49C27.3958 49.625 27.4375 49.9167 27.3125 49.875C27.3125 49.9583 27.375 49.7708 27.5 49.3125ZM28 70.5625C27.9167 70.0208 27.9375 69.6667 28.0625 69.5C27.6042 69.375 27.3542 69.6667 27.3125 70.375C27.2292 71.0833 27.375 71.4375 27.75 71.4375C28.0417 71.3125 28.125 71.0208 28 70.5625ZM28.625 49.1875C28.5417 49.1458 28.4583 49.125 28.375 49.125C28 49.625 27.8958 50.0833 28.0625 50.5H28.6875C28.6458 50.3333 28.6667 50.125 28.75 49.875C28.8333 49.6667 28.8542 49.4792 28.8125 49.3125C28.7708 49.3125 28.7083 49.2708 28.625 49.1875ZM29.5625 46.4375C29.7292 46.2708 29.7917 46.0208 29.75 45.6875C29.4583 45.6458 29.2917 45.75 29.25 46C29.25 46.2917 29.3542 46.4375 29.5625 46.4375ZM29.5625 40.5C29.9375 39.9167 29.8958 39.6042 29.4375 39.5625C29.3542 39.7708 29.2917 39.875 29.25 39.875C29.2917 40.2083 29.3958 40.4167 29.5625 40.5ZM29.25 59.1875C29 59.1875 28.8125 59.2292 28.6875 59.3125C28.6875 59.4375 28.7083 59.5417 28.75 59.625C28.7917 59.75 28.8125 59.8542 28.8125 59.9375C29.1042 59.9375 29.25 59.6875 29.25 59.1875ZM28.8125 66.6875C28.8542 66.6042 28.8125 67.2917 28.6875 68.75C29.3125 69.2917 29.9167 69.3958 30.5 69.0625C30.3333 68.4792 30.2708 67.7708 30.3125 66.9375C30.0208 66.8958 29.875 67.1042 29.875 67.5625C29.875 68.0625 29.7708 68.3125 29.5625 68.3125C29.3542 68.2708 29.25 67.9583 29.25 67.375C29.2917 66.8333 29.1458 66.6042 28.8125 66.6875ZM28.625 70.8125C28.5833 71.5208 28.7917 71.8333 29.25 71.75C29.5 71.6667 29.625 71.375 29.625 70.875C29.5833 70.125 29.5625 69.7083 29.5625 69.625C29.4792 69.6667 29.375 69.6458 29.25 69.5625C29.1667 69.5208 29.0833 69.5 29 69.5C28.75 69.7083 28.625 70.1458 28.625 70.8125ZM30.625 66.1875C30.7083 65.8958 30.7083 65.6042 30.625 65.3125C30.5833 65.3125 30.4792 65.2917 30.3125 65.25C30.1458 65.25 30.0208 65.2292 29.9375 65.1875C29.6458 65.1875 29.4792 65.3333 29.4375 65.625C29.4375 66.0417 29.8333 66.2292 30.625 66.1875ZM30.5 65C30.8333 63.9167 30.7292 63.375 30.1875 63.375C29.8125 64.1667 29.9167 64.7083 30.5 65ZM31 40.3125C31.1667 40.0208 31.0833 39.8333 30.75 39.75C30.4167 40.125 30.2708 40.4167 30.3125 40.625C30.6458 40.7083 30.875 40.6042 31 40.3125ZM30.3125 58.5625C30.3125 60.1458 30.5208 61.1042 30.9375 61.4375C31.1042 60.5625 30.8958 59.6042 30.3125 58.5625ZM30.9375 67.375C31.1458 67.5833 31.3958 68.1875 31.6875 69.1875C31.9792 69.1875 32.125 68.9375 32.125 68.4375C32.1667 67.4375 32.1667 67.0417 32.125 67.25C32 67.125 31.7708 67.0625 31.4375 67.0625C31.1042 67.1042 30.9375 67.2083 30.9375 67.375ZM31.5 50.0625C31.25 50.3958 31.1667 50.75 31.25 51.125C31.4167 51.125 31.5417 50.9792 31.625 50.6875C31.7083 50.3542 31.6667 50.1458 31.5 50.0625ZM30.9375 43.5C30.7708 43.75 30.7083 44.0833 30.75 44.5C31.4583 44.375 31.7708 44.0208 31.6875 43.4375C31.3542 43.2708 31.1042 43.2917 30.9375 43.5ZM31.6875 42.3125C31.6458 42.0625 31.5417 41.9583 31.375 42C31.2917 42.0833 31.2292 42.2292 31.1875 42.4375C31.1875 42.6875 31.2917 42.7708 31.5 42.6875C31.6667 42.6875 31.7292 42.5625 31.6875 42.3125ZM32.4375 51.375C32.6458 50.7917 32.7292 50.4583 32.6875 50.375C32.4375 50.3333 32.2708 50.4792 32.1875 50.8125C32.1042 51.1458 32.1875 51.3333 32.4375 51.375ZM34.1875 53.8125C34.1042 53.8958 34.1042 53.5833 34.1875 52.875C33.6042 52.875 33.3125 52.9792 33.3125 53.1875C33.7292 53.6042 34.0208 53.8125 34.1875 53.8125ZM33.875 71.125C33.875 71.7083 34.0833 72.0208 34.5 72.0625C34.625 71.7708 34.6875 71.2083 34.6875 70.375C34.1875 70.2917 33.9167 70.5417 33.875 71.125ZM33.9375 57.0625C34.1042 57.6458 34.4375 57.9583 34.9375 58C34.8542 57.5 34.5208 57.1875 33.9375 57.0625ZM35.4375 62.625C35.4792 61.9583 35.6667 61.4583 36 61.125C35.75 60.7083 35.3958 60.4167 34.9375 60.25C34.6875 60.5 34.625 60.9167 34.75 61.5C34.875 62.0833 35.1042 62.4583 35.4375 62.625ZM36.3125 62.9375C35.9792 62.8958 35.8333 63.0833 35.875 63.5C36.2083 63.5417 36.3542 63.3542 36.3125 62.9375ZM35.5625 58.5625C36.1042 59.0208 36.5 59.2292 36.75 59.1875C36.8333 58.8125 36.6875 58.5417 36.3125 58.375C35.9375 58.1667 35.6875 58.2292 35.5625 58.5625ZM38.25 62.6875C38.25 62.3542 38.1042 62.2292 37.8125 62.3125C37.7708 62.3542 37.7708 62.6042 37.8125 63.0625C38.1042 63.1458 38.25 63.0208 38.25 62.6875ZM40.625 67.875C40.5833 67.5 40.25 67.1458 39.625 66.8125C39.5 67.0208 39.5625 67.2292 39.8125 67.4375C40.0625 67.6875 40.3333 67.8333 40.625 67.875ZM41.25 72.625C41.25 73.0417 41.3958 73.25 41.6875 73.25C41.8125 73.0833 41.8333 72.8125 41.75 72.4375C41.7083 72.0625 41.5833 71.8333 41.375 71.75C41.25 71.9583 41.2083 72.25 41.25 72.625ZM48 78.9375C48.2083 78.6458 48.25 78.25 48.125 77.75C47.9583 77.6667 47.2708 77.6042 46.0625 77.5625C46.1875 77.9792 46.8333 78.4375 48 78.9375ZM48.875 78.9375V79.375C48.7083 79.375 48.8333 79.4167 49.25 79.5C49.3333 79.5 49.4167 79.4167 49.5 79.25C49.4167 79.25 49.3125 79.1875 49.1875 79.0625C49.1458 78.9375 49.0417 78.8958 48.875 78.9375ZM16.625 71.625C16.5833 72.125 16.6667 72.4583 16.875 72.625C17 72.4167 17.0833 72.0208 17.125 71.4375C17.125 70.8958 17.2292 70.5 17.4375 70.25C17.2708 70.2083 17.1042 70.2292 16.9375 70.3125C16.7708 70.3542 16.6458 70.375 16.5625 70.375C16.6875 70.625 16.7083 71.0417 16.625 71.625ZM17 69.3125C17.0417 69.0208 17 68.7292 16.875 68.4375C16.4167 68.3542 16.1667 68.5625 16.125 69.0625C16.0417 69.6042 16.1875 69.8958 16.5625 69.9375C16.8125 69.8958 16.9583 69.6875 17 69.3125ZM13.125 70.25C13.125 70.625 13.1667 70.875 13.25 71C13.625 71.0833 13.875 70.9167 14 70.5C14.0833 70.125 14.0417 69.7917 13.875 69.5H13.25C13.1667 69.625 13.125 69.875 13.125 70.25ZM13.125 72C13.0833 72.2917 13.2292 72.3958 13.5625 72.3125C13.5625 72.0625 13.6042 71.875 13.6875 71.75C13.3958 71.625 13.2083 71.7083 13.125 72ZM10.5625 70.25C10.3125 71.4167 10.3125 72.0625 10.5625 72.1875C10.6042 72.1458 10.75 71.5 11 70.25H10.5625ZM8.625 72.0625C8.625 72.5625 8.77083 72.8125 9.0625 72.8125C9.14583 72.6042 9.1875 72.2708 9.1875 71.8125C9.14583 71.3542 9 71.0833 8.75 71C8.625 71.25 8.58333 71.6042 8.625 72.0625ZM6.25 79.375C6.125 79.7917 6.0625 80 6.0625 80C7.4375 79.1667 8.08333 79 8 79.5C7.04167 79.5417 6.45833 79.5 6.25 79.375ZM7.3125 80.75C6.9375 80.6667 6.77083 80.9167 6.8125 81.5C7.10417 81.5 7.27083 81.25 7.3125 80.75ZM6.25 82.6875C5.625 82.8542 5.375 83.3958 5.5 84.3125C6 83.1875 6.25 82.6458 6.25 82.6875ZM5 81.0625C4.79167 81.3958 4.75 81.625 4.875 81.75C4.91667 81.6667 5.08333 81.5 5.375 81.25C5.58333 81.0833 5.66667 80.8542 5.625 80.5625C5.375 80.5625 5.16667 80.7292 5 81.0625ZM5.0625 84.75C4.4375 84.75 4.125 85.1458 4.125 85.9375C4.83333 86.0625 5.14583 85.6667 5.0625 84.75ZM53.6875 84C52.6875 82.875 52.0417 82.1875 51.75 81.9375C50.875 82.5625 50.8958 83.1667 51.8125 83.75C53.0208 84.5417 53.6458 85.125 53.6875 85.5C53.3542 85.4167 52.9375 85.1875 52.4375 84.8125C51.9375 84.4375 51.5 84.2292 51.125 84.1875C50.75 84.7708 50.8542 85.4375 51.4375 86.1875C52.1458 87.1042 52.4792 87.7708 52.4375 88.1875C51.3125 88.6875 50.2708 88.9375 49.3125 88.9375C49.1875 89.0208 49.0417 89.2083 48.875 89.5C48.7083 89.75 48.5625 89.9167 48.4375 90C48.2292 90 48.0417 89.8958 47.875 89.6875C47.75 89.4792 47.5833 89.375 47.375 89.375C46.6667 87.4583 45.4792 85.6667 43.8125 84C41.9792 82.125 40.0833 81.0417 38.125 80.75C36.75 80.5417 35.5625 81.1667 34.5625 82.625C33.2292 84.5 32.4167 85.5208 32.125 85.6875C32.2083 83.8542 32.25 82.9375 32.25 82.9375C32.2917 82.9375 31.9583 83.6458 31.25 85.0625C31.0417 85.3958 30.6667 85.875 30.125 86.5C29.625 87.0417 29.2917 87.5 29.125 87.875C28.7917 87.7917 28.2083 87.8542 27.375 88.0625C26.75 88.2292 26.2917 88.125 26 87.75C24.7917 88.3333 24.1458 88.625 24.0625 88.625C23.8125 88.6667 23.625 88.5625 23.5 88.3125C23.3333 87.9792 23.2083 87.7917 23.125 87.75C21.4583 88.3333 20.6667 88.5833 20.75 88.5C20.375 88.2917 20.2292 87.9375 20.3125 87.4375C20.3958 86.7708 20.3958 86.3333 20.3125 86.125C20.0208 86.125 19.8125 86.4583 19.6875 87.125C18.3958 87.625 17.3958 87.875 16.6875 87.875C17.6875 84.9167 17.8958 82.4792 17.3125 80.5625C14.3958 80.4792 12.8542 82.3333 12.6875 86.125C11.7292 86.5 10.2708 86.8958 8.3125 87.3125C8.14583 87.3958 8.04167 87.5833 8 87.875C7.375 87.7083 6.79167 87.8125 6.25 88.1875C4.95833 87.5208 4.25 87.0833 4.125 86.875C3.83333 86.8333 3.625 86.9375 3.5 87.1875C3.45833 87.2708 3.41667 87.3958 3.375 87.5625C3.33333 87.7292 3.29167 87.8333 3.25 87.875C3 88 2.6875 87.9583 2.3125 87.75C1.9375 87.5833 1.54167 87.5833 1.125 87.75C1.29167 87.7083 1.5625 87.4167 1.9375 86.875C2.1875 86.5 2.52083 86.3958 2.9375 86.5625C3.35417 85.8125 3.5625 85.3542 3.5625 85.1875C3.4375 85.0625 3.25 85.0833 3 85.25C2.75 85.5 2.54167 85.5833 2.375 85.5C2.41667 85.25 2.8125 84.875 3.5625 84.375C4.10417 83.9583 4.25 83.4375 4 82.8125C3.45833 83.1042 2.83333 83.7292 2.125 84.6875C1.45833 85.6458 0.833333 86.2708 0.25 86.5625C0.875 85.3958 2.27083 83.4792 4.4375 80.8125C6.27083 78.5208 7.52083 76.5 8.1875 74.75C8.02083 74.5833 7.875 73.3333 7.75 71C8.66667 70.4583 9.85417 70 11.3125 69.625C11.3542 69.5833 12.7083 66.1042 15.375 59.1875C16.4583 56.3125 17 54.7708 17 54.5625C17 54.1458 16.8125 53.6042 16.4375 52.9375C16.1042 52.3125 15.9375 51.7917 15.9375 51.375C16.2292 51.0833 16.75 50.7292 17.5 50.3125C18.2083 49.8542 18.6875 49.4583 18.9375 49.125C18.8125 48.375 18.9167 46.8958 19.25 44.6875C20 39.3958 21.0417 29.3125 22.375 14.4375C22.4167 14.0625 22.5 13.4583 22.625 12.625C22.7917 11.8333 22.875 11.25 22.875 10.875C22.9583 9.58333 22.6458 8.58333 21.9375 7.875C21.5208 6.375 21.8125 5.0625 22.8125 3.9375C23.9375 2.6875 24.4375 1.5 24.3125 0.375H25.375C25.5833 0.625 25.6667 0.9375 25.625 1.3125C25.5417 1.77083 25.5208 2.0625 25.5625 2.1875C25.6875 2.64583 26.1042 3.08333 26.8125 3.5C27.5625 3.91667 28.0417 4.3125 28.25 4.6875C28.375 6.9375 28.0208 8.6875 27.1875 9.9375C27.2292 10.0625 27.3333 10.25 27.5 10.5C27.625 10.7083 27.7083 10.875 27.75 11C30.2917 30.2917 32.1458 42.2083 33.3125 46.75C33.1042 47.7917 33 48.2917 33 48.25C33.2083 48.4583 33.8542 48.7917 34.9375 49.25C35.6875 49.5417 36.0417 50.0625 36 50.8125C36 51.1042 35.8542 51.3958 35.5625 51.6875C35.2292 51.9792 35.0208 52.2708 34.9375 52.5625C38.2292 60.9792 40.5417 66.125 41.875 68C43.4583 68.3333 44.4375 68.6875 44.8125 69.0625C44.5208 69.4375 44.4792 70 44.6875 70.75C44.8958 71.75 45 72.375 45 72.625C45.1667 72.6667 45.2708 72.5625 45.3125 72.3125C45.7292 73.5208 47.5625 76.0208 50.8125 79.8125C51.3958 80.4792 52.2292 81.4792 53.3125 82.8125C54.3958 84.1042 55.2083 85.0625 55.75 85.6875C55.1667 85.5208 54.4792 84.9583 53.6875 84ZM45.4375 70.875C45.0208 70.2083 45.0208 69.5417 45.4375 68.875C45.6458 69.2083 45.7917 69.5625 45.875 69.9375C45.9583 70.4792 45.8125 70.7917 45.4375 70.875Z" fill="#FFF6E4"/>
</svg>
