<svg width="243" height="199" viewBox="0 0 243 199" fill="none" xmlns="http://www.w3.org/2000/svg">
<path d="M16.8895 0.106817C12.1983 0.626141 8.53265 1.81626 6.0256 3.67717C-1.55253 9.25989 -1.98936 19.9493 4.75308 35.2693C22.6063 75.8848 86.8779 136.646 150.124 172.695C188.09 194.334 218.878 203.292 233.863 197.06C238.554 195.113 241.422 191.629 242.752 186.263C243.151 184.618 243.056 179.209 242.562 176.59C241.327 170.055 237.795 161.487 232.781 152.939C225.297 140.173 213.845 125.372 200.151 110.831L196.827 107.282L197.169 104.512C199.676 83.9126 195.023 62.4256 184.368 45.3312C179.753 37.9525 173.295 30.6387 166.743 25.4455C159.582 19.7545 151.339 15.4918 142.793 13.0466C136.81 11.3156 131.948 10.6664 125.243 10.6664C120.058 10.6664 117.589 10.8828 113.05 11.7483C104.674 13.3496 96.1844 16.8334 88.8152 21.6804L86.9729 22.8921L83.1363 20.8581C59.9081 8.63238 40.1556 1.57823 25.1893 0.193371C22.9292 -0.0230137 18.4469 -0.0662906 16.8895 0.106817ZM55.9197 29.6001C59.2624 30.2708 63.7637 31.6124 68.17 33.2786C70.3162 34.1009 72.3294 34.8798 72.6523 35.053L73.2411 35.3343L71.3608 37.7145C65.1502 45.5693 59.8512 55.5013 57.0402 64.5246L56.5084 66.234L55.8437 65.3685C55.4638 64.8924 54.3053 63.3777 53.2417 62.0361C41.3142 46.6728 37.4397 35.1179 42.8146 30.8984C43.8402 30.0977 45.3597 29.4486 46.8791 29.1673C48.5505 28.8643 53.3556 29.1024 55.9197 29.6001ZM194.339 129.591C197.359 133.486 199.638 136.84 201.86 140.627C205.317 146.534 206.817 150.538 206.95 154.346C207.083 157.224 206.684 158.5 205.184 160.058C203.323 162.006 201.271 162.569 196.618 162.395C192.44 162.266 188.432 161.422 182.791 159.496C179.886 158.5 173.599 156.012 173.352 155.774C173.257 155.687 174.72 153.87 176.581 151.749C182.697 144.738 187.065 137.728 190.579 129.31C191.205 127.795 191.813 126.584 191.908 126.627C192.022 126.649 193.105 127.99 194.339 129.591Z" fill="#FFF6E4"/>
<path d="M53.5647 107.542C57.8381 135.888 75.0645 159.929 98.6346 170.445C104.712 173.15 110.258 174.729 117.172 175.703C120.248 176.136 130.846 176.071 133.98 175.595C136.43 175.227 142.052 173.994 142.223 173.821C142.337 173.669 142.584 173.842 138.443 171.332C110.524 154.476 79.2239 130.371 55.7868 107.672C54.4573 106.395 53.3368 105.335 53.2988 105.335C53.2608 105.335 53.3748 106.33 53.5647 107.542Z" fill="#FFF6E4"/>
<path d="M80.7263 69.4315L82.1515 70.5634L74.8747 78.1607C74.0354 79.0369 73.0901 79.5153 72.0387 79.5958C70.9375 79.6706 69.8909 79.3142 68.899 78.5264C67.8967 77.7304 67.381 76.8292 67.3521 75.823C67.3225 74.9518 67.6813 74.1262 68.4283 73.3463L69.1477 72.5952L70.6042 73.752L70.12 74.2575C68.9303 75.4996 68.894 76.5643 70.0112 77.4516C70.6273 77.9408 71.2896 78.0939 71.9982 77.9107C72.5415 77.7657 73.1774 77.3129 73.906 76.5522L80.7263 69.4315ZM89.4375 76.3498L90.8627 77.4817L84.0701 84.5735C83.0003 85.6904 81.7265 86.2046 80.2487 86.116C78.97 86.0499 77.7147 85.5277 76.4826 84.5492C75.0626 83.4214 74.2937 82.2089 74.1759 80.9117C74.0887 79.7743 74.5154 78.7146 75.4562 77.7324L82.2488 70.6407L83.674 71.7726L76.8814 78.8643C76.1989 79.5769 75.9192 80.3295 76.0422 81.1223C76.1745 81.9055 76.6948 82.6578 77.6032 83.3793C78.5638 84.1421 79.5172 84.5094 80.4635 84.4811C81.2906 84.4429 82.0177 84.0964 82.6449 83.4416L89.4375 76.3498ZM96.0158 86.8128L94.6689 85.7431C95.9287 84.3702 95.6398 82.954 93.8022 81.4946C93.0504 80.8976 92.2927 80.5755 91.5289 80.5284C90.7744 80.4717 90.1527 80.6985 89.6639 81.2088C89.295 81.594 89.1356 82.0099 89.1857 82.4566C89.2555 82.9019 89.5513 83.476 90.0732 84.1787L92.127 86.9287C93.4219 88.686 93.4376 90.2243 92.174 91.5435C91.261 92.4968 90.1061 92.9444 88.7094 92.8863C87.4805 92.8258 86.1822 92.2524 84.8144 91.1661C83.0812 89.7896 82.2841 88.309 82.4233 86.7242C82.5037 85.8725 82.9531 85.0003 83.7715 84.1075L85.1184 85.1771L85.0907 85.206C84.3714 85.9571 84.0901 86.7594 84.2469 87.6129C84.4233 88.4651 85.0127 89.2892 86.0151 90.0853C86.9339 90.815 87.7515 91.2185 88.468 91.2958C89.3233 91.3817 90.0414 91.1214 90.6225 90.5147C91.3603 89.7444 91.1975 88.6572 90.1341 87.2532L87.9826 84.3748C86.8529 82.8672 86.8829 81.4924 88.0727 80.2503C89.0134 79.2681 90.144 78.8267 91.4644 78.9259C92.6159 79.0097 93.7659 79.5076 94.9144 80.4198C96.5432 81.7134 97.2878 83.076 97.1481 84.5079C97.0665 85.3416 96.7398 86.057 96.1679 86.654C96.1403 86.6828 96.0895 86.7358 96.0158 86.8128ZM101.947 88.3443L93.1619 97.5159L91.7367 96.384L100.521 87.2124L96.8253 84.2769L97.9459 83.107L106.732 90.0849L105.612 91.2548L101.947 88.3443ZM108.262 101.218L102.483 96.6284L97.9733 101.337L96.548 100.205L106.453 89.8635L107.879 90.9954L103.604 95.4584L109.383 100.048L113.658 95.5851L115.083 96.717L105.178 107.059L103.752 105.927L108.262 101.218ZM111.348 103.668L107.958 107.207L114.567 112.456L113.447 113.626L105.412 107.245L115.318 96.9034L123.086 103.073L121.965 104.243L115.622 99.2052L112.468 102.498L118.576 107.349L117.456 108.519L111.348 103.668ZM119.059 110.25L114.798 114.699L113.373 113.567L123.278 103.225L128.431 107.318C129.621 108.263 130.25 109.237 130.319 110.241C130.378 111.119 130.007 111.977 129.205 112.815C128.642 113.402 128.035 113.776 127.384 113.938C126.744 114.107 125.967 114.084 125.053 113.867C125.39 114.456 125.531 115 125.476 115.499C125.411 116.007 124.925 116.765 124.015 117.772C123.344 118.511 122.926 119.034 122.759 119.343C122.612 119.65 122.591 119.998 122.696 120.387L122.378 120.719L120.655 119.351C120.85 118.725 121.182 118.167 121.653 117.676L123.218 116.071C123.319 115.965 123.429 115.764 123.547 115.468C123.666 115.172 123.729 114.942 123.738 114.78C123.751 114.248 123.418 113.712 122.739 113.173L119.059 110.25ZM120.18 109.08L123.641 111.829C125.113 112.998 126.416 112.991 127.551 111.806C128.685 110.622 128.516 109.445 127.044 108.276L123.583 105.527L120.18 109.08ZM136.758 113.651C138.491 115.028 139.329 116.668 139.271 118.571C139.215 120.222 138.477 121.789 137.057 123.272C135.424 124.976 133.574 125.881 131.507 125.985C129.705 126.063 128.052 125.505 126.548 124.311C124.805 122.926 123.962 121.282 124.02 119.378C124.076 117.727 124.814 116.16 126.234 114.677C127.867 112.973 129.722 112.073 131.799 111.976C133.591 111.891 135.244 112.449 136.758 113.651ZM135.622 114.809C134.348 113.797 132.93 113.425 131.368 113.694C130.012 113.939 128.776 114.644 127.66 115.809C126.378 117.148 125.78 118.53 125.867 119.955C125.951 121.191 126.547 122.249 127.653 123.128C128.938 124.148 130.361 124.524 131.923 124.256C133.279 124.011 134.515 123.305 135.631 122.14C136.913 120.802 137.511 119.42 137.424 117.995C137.34 116.758 136.739 115.696 135.622 114.809ZM150.674 124.983L140.769 135.325L139.172 134.056L141.399 121.05L133.361 129.441L132.014 128.372L141.919 118.03L143.47 119.261L141.234 132.363L149.327 123.913L150.674 124.983ZM155.65 128.655C157.383 130.031 158.221 131.671 158.163 133.575C158.107 135.226 157.369 136.793 155.949 138.276C154.316 139.98 152.466 140.885 150.399 140.989C148.597 141.067 146.944 140.508 145.44 139.314C143.697 137.929 142.854 136.285 142.912 134.382C142.968 132.731 143.706 131.164 145.126 129.681C146.759 127.977 148.614 127.076 150.691 126.98C152.483 126.894 154.136 127.453 155.65 128.655ZM154.514 129.812C153.24 128.801 151.822 128.429 150.26 128.697C148.904 128.943 147.667 129.648 146.552 130.813C145.27 132.151 144.672 133.533 144.759 134.959C144.843 136.195 145.439 137.253 146.545 138.132C147.83 139.152 149.253 139.528 150.815 139.259C152.171 139.014 153.407 138.309 154.523 137.144C155.805 135.805 156.403 134.424 156.316 132.998C156.232 131.762 155.631 130.7 154.514 129.812ZM163.44 137.181L154.656 146.353L153.23 145.221L162.015 136.05L158.319 133.114L159.44 131.944L168.226 138.922L167.105 140.092L163.44 137.181ZM82.1335 108.44L76.3544 103.851L71.8444 108.559L70.4192 107.427L80.3245 97.0859L81.7497 98.2178L77.4749 102.681L83.2541 107.271L87.5289 102.807L88.9541 103.939L79.0488 114.281L77.6236 113.149L82.1335 108.44ZM85.2187 110.891L81.8293 114.429L88.4385 119.678L87.318 120.848L79.2835 114.467L89.1888 104.126L96.957 110.295L95.8364 111.465L89.4934 106.428L86.3392 109.721L92.4473 114.572L91.3267 115.741L85.2187 110.891ZM92.9301 117.473L88.6691 121.921L87.2439 120.789L97.1492 110.448L102.302 114.54C103.492 115.485 104.121 116.46 104.19 117.463C104.249 118.341 103.878 119.199 103.076 120.037C102.513 120.624 101.906 120.999 101.256 121.16C100.615 121.33 99.8382 121.306 98.9246 121.089C99.261 121.678 99.4017 122.222 99.3467 122.721C99.2825 123.23 98.7957 123.987 97.8863 124.994C97.2155 125.733 96.7967 126.257 96.63 126.565C96.4829 126.872 96.4622 127.22 96.5676 127.609L96.2494 127.941L94.5266 126.573C94.7212 125.948 95.0536 125.39 95.524 124.898L97.0891 123.293C97.1905 123.187 97.3003 122.986 97.4185 122.69C97.5367 122.394 97.6001 122.165 97.6088 122.002C97.622 121.47 97.2893 120.935 96.6106 120.396L92.9301 117.473ZM94.0507 116.303L97.5119 119.052C98.9841 120.221 100.287 120.213 101.422 119.029C102.556 117.844 102.387 116.668 100.915 115.498L97.4539 112.75L94.0507 116.303ZM110.629 120.874C112.363 122.25 113.2 123.89 113.142 125.793C113.086 127.445 112.348 129.012 110.928 130.494C109.295 132.199 107.446 133.103 105.378 133.208C103.576 133.285 101.923 132.727 100.42 131.533C98.676 130.148 97.8333 128.504 97.8915 126.601C97.9472 124.95 98.6852 123.383 100.106 121.9C101.738 120.195 103.593 119.295 105.671 119.199C107.462 119.113 109.115 119.671 110.629 120.874ZM109.493 122.031C108.219 121.019 106.801 120.648 105.239 120.916C103.883 121.161 102.647 121.866 101.531 123.032C100.249 124.37 99.6513 125.752 99.7383 127.177C99.8224 128.414 100.418 129.472 101.525 130.351C102.809 131.371 104.232 131.746 105.794 131.478C107.15 131.233 108.387 130.528 109.503 129.363C110.785 128.024 111.382 126.642 111.295 125.217C111.211 123.98 110.61 122.918 109.493 122.031ZM111.498 131.761L108.109 135.3L114.718 140.549L113.597 141.719L105.563 135.338L115.468 124.996L123.236 131.166L122.116 132.336L115.773 127.298L112.619 130.591L118.727 135.442L117.606 136.612L111.498 131.761ZM128.316 140.438L126.969 139.368C128.229 137.996 127.94 136.579 126.102 135.12C125.35 134.523 124.592 134.201 123.829 134.154C123.074 134.097 122.452 134.324 121.964 134.834C121.595 135.219 121.435 135.635 121.485 136.082C121.555 136.527 121.851 137.101 122.373 137.804L124.427 140.554C125.722 142.311 125.737 143.85 124.474 145.169C123.561 146.122 122.406 146.57 121.009 146.512C119.78 146.451 118.482 145.878 117.114 144.791C115.381 143.415 114.584 141.934 114.723 140.349C114.804 139.498 115.253 138.626 116.071 137.733L117.418 138.802L117.391 138.831C116.671 139.582 116.39 140.385 116.547 141.238C116.723 142.09 117.313 142.915 118.315 143.711C119.234 144.44 120.051 144.844 120.768 144.921C121.623 145.007 122.341 144.747 122.922 144.14C123.66 143.37 123.497 142.283 122.434 140.879L120.282 138C119.153 136.493 119.183 135.118 120.372 133.876C121.313 132.893 122.444 132.452 123.764 132.551C124.916 132.635 126.066 133.133 127.214 134.045C128.843 135.339 129.588 136.701 129.448 138.133C129.366 138.967 129.04 139.682 128.468 140.279C128.44 140.308 128.389 140.361 128.316 140.438Z" fill="black"/>
</svg>
