<svg  data-aos="fade-down-left"
                  className="absolute top-96 sm:-right-20 -right-9" width="110" height="99" viewBox="0 0 110 99" fill="none" xmlns="http://www.w3.org/2000/svg">
<path d="M7.64351 0.0530624C5.52045 0.311167 3.86154 0.902657 2.72695 1.82753C-0.702612 4.60216 -0.900306 9.91481 2.15106 17.5289C10.2307 37.7148 39.3175 67.9131 67.9401 85.8299C85.1223 96.5842 99.0554 101.037 105.837 97.9393C107.96 96.9714 109.258 95.2399 109.86 92.5728C110.04 91.7555 109.997 89.0669 109.774 87.7656C109.215 84.5178 107.616 80.2591 105.347 76.0111C101.961 69.666 96.7776 62.3101 90.5804 55.0831L89.0762 53.3194L89.2309 51.9429C90.3655 41.7047 88.2596 31.0256 83.4376 22.5297C81.3489 18.8624 78.4265 15.2275 75.4611 12.6464C72.2206 9.81802 68.4902 7.69941 64.6223 6.48417C61.9148 5.62382 59.7143 5.30119 56.6802 5.30119C54.3336 5.30119 53.2162 5.40874 51.1619 5.83891C47.3714 6.63473 43.5292 8.36618 40.1942 10.7752L39.3605 11.3774L37.6242 10.3665C27.1121 4.29028 18.1729 0.784359 11.3997 0.0960799C10.3768 -0.0114638 8.34833 -0.0329725 7.64351 0.0530624ZM25.307 14.7113C26.8198 15.0446 28.8569 15.7114 30.851 16.5395C31.8223 16.9482 32.7334 17.3353 32.8796 17.4214L33.146 17.5612L32.2951 18.7441C29.4844 22.648 27.0863 27.5842 25.8141 32.0688L25.5735 32.9184L25.2726 32.4882C25.1007 32.2516 24.5764 31.4988 24.0951 30.832C18.6972 23.1964 16.9437 17.4536 19.3762 15.3565C19.8404 14.9586 20.528 14.636 21.2156 14.4962C21.972 14.3456 24.1466 14.4639 25.307 14.7113ZM87.9502 64.4072C89.3168 66.3429 90.3483 68.0099 91.354 69.8919C92.9183 72.8278 93.5974 74.8174 93.6575 76.7102C93.7177 78.1405 93.5372 78.775 92.8581 79.5493C92.0158 80.5172 91.0875 80.7968 88.9816 80.7108C87.0906 80.6463 85.277 80.2268 82.7242 79.2697C81.4091 78.775 78.564 77.5382 78.4523 77.4199C78.4093 77.3769 79.0712 76.4736 79.9135 75.4196C82.6812 71.9352 84.6582 68.4508 86.2483 64.2674C86.5319 63.5146 86.807 62.9123 86.85 62.9338C86.9015 62.9446 87.3915 63.6113 87.9502 64.4072Z" fill="#FFF6E4"/>
<path d="M24.2413 53.4485C26.1753 67.5367 33.9713 79.4848 44.6382 84.7114C47.3887 86.0557 49.8985 86.8408 53.0272 87.3247C54.4197 87.5398 59.2159 87.5075 60.6342 87.271C61.743 87.0881 64.2872 86.4751 64.3646 86.3891C64.4161 86.3138 64.5279 86.3998 62.6541 85.1523C50.0189 76.7747 35.8537 64.7943 25.247 53.513C24.6453 52.8785 24.1382 52.3515 24.121 52.3515C24.1038 52.3515 24.1554 52.8462 24.2413 53.4485Z" fill="#FFF6E4"/>
<path d="M36.2875 33.1854L36.9733 33.7835L33.5159 37.7476C33.1172 38.2048 32.6663 38.453 32.1634 38.492C31.6367 38.528 31.1347 38.3379 30.6573 37.9216C30.175 37.5009 29.9253 37.0265 29.9081 36.4985C29.8911 36.0413 30.06 35.6093 30.415 35.2023L30.7568 34.8104L31.4577 35.4217L31.2276 35.6855C30.6623 36.3336 30.6485 36.8921 31.1861 37.361C31.4825 37.6195 31.8 37.7018 32.1385 37.6078C32.398 37.5334 32.7009 37.2977 33.047 36.9008L36.2875 33.1854ZM40.4793 36.8414L41.1651 37.4395L37.9378 41.1398C37.4295 41.7226 36.8216 41.9886 36.114 41.9377C35.5019 41.8991 34.8994 41.6213 34.3065 41.1043C33.6232 40.5083 33.2512 39.8698 33.1906 39.1889C33.1451 38.5919 33.3458 38.0372 33.7928 37.5247L37.0201 33.8244L37.7059 34.4225L34.4786 38.1228C34.1543 38.4946 34.0229 38.8887 34.0844 39.305C34.1503 39.7163 34.4018 40.1126 34.8389 40.4938C35.3012 40.897 35.7587 41.0925 36.2114 41.0805C36.6071 41.0629 36.954 40.8833 37.252 40.5417L40.4793 36.8414ZM43.662 42.3507L43.0139 41.7854C43.6123 41.0688 43.4694 40.325 42.5851 39.5537C42.2233 39.2382 41.8596 39.067 41.494 39.04C41.1327 39.0079 40.8359 39.1251 40.6037 39.3913C40.4284 39.5923 40.3535 39.8101 40.3789 40.0446C40.4138 40.2784 40.5573 40.5805 40.8094 40.9507L41.8013 42.3997C42.4268 43.3257 42.4394 44.1328 41.8391 44.8211C41.4053 45.3185 40.8541 45.5499 40.1855 45.5152C39.5971 45.4797 38.9739 45.175 38.3157 44.601C37.4817 43.8736 37.0954 43.0943 37.1568 42.2633C37.1924 41.8167 37.4046 41.3604 37.7933 40.8944L38.4414 41.4597L38.4283 41.4748C38.0865 41.8667 37.9545 42.2867 38.0324 42.735C38.1197 43.1827 38.4045 43.6168 38.8868 44.0375C39.3289 44.4231 39.7215 44.6373 40.0647 44.68C40.4743 44.7276 40.8171 44.5932 41.0932 44.2767C41.4437 43.8747 41.3622 43.3038 40.8486 42.564L39.8095 41.0474C39.2639 40.253 39.2737 39.5318 39.839 38.8836C40.286 38.3712 40.8256 38.143 41.4578 38.199C42.0092 38.2464 42.5612 38.5111 43.1138 38.9932C43.8976 39.6767 44.2584 40.3939 44.1963 41.1447C44.16 41.5819 44.006 41.9563 43.7343 42.2678C43.7212 42.2828 43.6971 42.3105 43.662 42.3507ZM46.5054 43.172L42.3316 47.9575L41.6458 47.3594L45.8196 42.5738L44.041 41.0226L44.5735 40.4122L48.8013 44.0996L48.2689 44.71L46.5054 43.172ZM49.5705 49.9453L46.7896 47.5199L44.6468 49.9768L43.961 49.3786L48.6672 43.9826L49.353 44.5808L47.322 46.9095L50.1029 49.3349L52.1339 47.0062L52.8197 47.6043L48.1135 53.0003L47.4277 52.4022L49.5705 49.9453ZM51.055 51.2401L49.4446 53.0865L52.625 55.8603L52.0925 56.4707L48.2264 53.0988L52.9326 47.7028L56.6707 50.963L56.1383 51.5734L53.086 48.9114L51.5874 50.6297L54.5266 53.1931L53.9942 53.8036L51.055 51.2401ZM54.7672 54.7166L52.7427 57.0378L52.0569 56.4397L56.7632 51.0437L59.2426 53.2062C59.8154 53.7057 60.1197 54.2189 60.1557 54.7456C60.1872 55.2065 60.0123 55.6555 59.6311 56.0926C59.3638 56.3991 59.0746 56.5937 58.7637 56.6763C58.4578 56.7634 58.0859 56.7486 57.6479 56.632C57.8109 56.9422 57.88 57.2281 57.8553 57.4896C57.8263 57.7562 57.5958 58.1523 57.1639 58.6779C56.8453 59.0635 56.6467 59.3369 56.5679 59.4983C56.4985 59.6589 56.4897 59.8414 56.5415 60.0458L56.3903 60.2191L55.5613 59.4961C55.6524 59.1686 55.8096 58.8767 56.0331 58.6205L56.7768 57.783C56.825 57.7277 56.8769 57.6226 56.9325 57.4676C56.988 57.3126 57.0176 57.1924 57.0212 57.1071C57.0258 56.8281 56.8648 56.5461 56.5382 56.2613L54.7672 54.7166ZM55.2996 54.1062L56.9651 55.5588C57.6736 56.1767 58.2973 56.1766 58.8362 55.5586C59.3752 54.9406 59.2905 54.3227 58.5821 53.7049L56.9166 52.2522L55.2996 54.1062ZM63.2488 56.5543C64.0828 57.2817 64.489 58.1446 64.4674 59.143C64.4462 60.0092 64.0982 60.8291 63.4234 61.6028C62.6478 62.4921 61.7655 62.9611 60.7766 63.0097C59.9143 63.0449 59.1214 62.7471 58.3979 62.1161C57.5589 61.3843 57.1502 60.5192 57.1718 59.5207C57.1929 58.6546 57.5409 57.8346 58.2158 57.0609C58.9914 56.1716 59.8762 55.7049 60.8701 55.6606C61.7274 55.621 62.5203 55.9189 63.2488 56.5543ZM62.7088 57.1581C62.0959 56.6235 61.416 56.4242 60.6693 56.5603C60.021 56.6849 59.4318 57.0511 58.9016 57.6591C58.2925 58.3574 58.0111 59.0807 58.0575 59.8288C58.1018 60.4778 58.3902 61.0346 58.9228 61.499C59.5408 62.038 60.2231 62.2395 60.9698 62.1035C61.6181 61.9789 62.2073 61.6126 62.7376 61.0047C63.3467 60.3063 63.628 59.5831 63.5817 58.835C63.5374 58.1859 63.2464 57.627 62.7088 57.1581ZM69.9461 62.5414L65.2398 67.9374L64.4711 67.267L65.4941 60.4498L61.6752 64.8284L61.027 64.2631L65.7333 58.8671L66.4794 59.5179L65.4528 66.3849L69.298 61.9761L69.9461 62.5414ZM72.3395 64.4829C73.1735 65.2103 73.5797 66.0732 73.5581 67.0717C73.5369 67.9378 73.1889 68.7577 72.5141 69.5315C71.7385 70.4207 70.8562 70.8897 69.8673 70.9383C69.005 70.9736 68.2121 70.6757 67.4886 70.0447C66.6496 69.3129 66.2408 68.4478 66.2624 67.4493C66.2836 66.5832 66.6316 65.7633 67.3065 64.9895C68.0821 64.1003 68.9669 63.6335 69.9608 63.5893C70.8181 63.5496 71.6109 63.8475 72.3395 64.4829ZM71.7995 65.0868C71.1866 64.5522 70.5067 64.3529 69.76 64.4889C69.1117 64.6135 68.5225 64.9798 67.9923 65.5877C67.3832 66.2861 67.1018 67.0093 67.1482 67.7574C67.1925 68.4064 67.4809 68.9632 68.0135 69.4277C68.6315 69.9667 69.3138 70.1681 70.0605 70.0321C70.7088 69.9075 71.298 69.5413 71.8283 68.9333C72.4374 68.235 72.7187 67.5117 72.6724 66.7636C72.6281 66.1146 72.3371 65.5556 71.7995 65.0868ZM76.0958 68.9798L71.922 73.7654L71.2362 73.1672L75.41 68.3817L73.6314 66.8305L74.1638 66.22L78.3917 69.9074L77.8593 70.5179L76.0958 68.9798ZM37.0898 53.6561L34.3089 51.2306L32.1661 53.6875L31.4803 53.0893L36.1865 47.6933L36.8724 48.2915L34.8413 50.6202L37.6222 53.0456L39.6533 50.7169L40.3391 51.315L35.6328 56.711L34.947 56.1129L37.0898 53.6561ZM38.5743 54.9508L36.964 56.7972L40.1443 59.571L39.6119 60.1815L35.7458 56.8095L40.452 51.4135L44.19 54.6737L43.6576 55.2841L40.6054 52.6221L39.1068 54.3404L42.0459 56.9038L41.5135 57.5143L38.5743 54.9508ZM42.2865 58.4273L40.2621 60.7485L39.5763 60.1504L44.2825 54.7544L46.762 56.9169C47.3347 57.4164 47.6391 57.9296 47.675 58.4563C47.7065 58.9172 47.5316 59.3662 47.1504 59.8033C46.8831 60.1098 46.594 60.3044 46.2831 60.387C45.9771 60.4741 45.6052 60.4593 45.1673 60.3427C45.3302 60.6529 45.3993 60.9388 45.3747 61.2003C45.3456 61.4669 45.1152 61.863 44.6833 62.3886C44.3647 62.7742 44.166 63.0477 44.0872 63.209C44.0179 63.3696 44.0091 63.5521 44.0608 63.7565L43.9097 63.9298L43.0807 63.2068C43.1717 62.8793 43.329 62.5874 43.5524 62.3312L44.2961 61.4937C44.3443 61.4384 44.3962 61.3333 44.4518 61.1783C44.5074 61.0233 44.537 60.9032 44.5406 60.8179C44.5452 60.5388 44.3842 60.2568 44.0576 59.972L42.2865 58.4273ZM42.819 57.8169L44.4845 59.2695C45.1929 59.8874 45.8166 59.8873 46.3556 59.2693C46.8946 58.6514 46.8098 58.0334 46.1014 57.4156L44.4359 55.963L42.819 57.8169ZM50.7681 60.265C51.6021 60.9924 52.0083 61.8553 51.9867 62.8538C51.9655 63.7199 51.6175 64.5398 50.9427 65.3135C50.1671 66.2028 49.2848 66.6718 48.2959 66.7204C47.4336 66.7557 46.6407 66.4578 45.9173 65.8268C45.0782 65.095 44.6695 64.2299 44.6911 63.2314C44.7123 62.3653 45.0603 61.5454 45.7351 60.7716C46.5107 59.8823 47.3955 59.4156 48.3895 59.3713C49.2467 59.3317 50.0396 59.6296 50.7681 60.265ZM50.2282 60.8688C49.6152 60.3342 48.9354 60.135 48.1887 60.271C47.5404 60.3956 46.9511 60.7618 46.4209 61.3698C45.8118 62.0681 45.5305 62.7914 45.5768 63.5395C45.6211 64.1885 45.9096 64.7453 46.4421 65.2098C47.0601 65.7487 47.7425 65.9502 48.4892 65.8142C49.1374 65.6896 49.7267 65.3233 50.2569 64.7154C50.866 64.017 51.1474 63.2938 51.101 62.5457C51.0567 61.8967 50.7657 61.3377 50.2282 60.8688ZM51.2198 65.9798L49.6094 67.8262L52.7897 70.6L52.2573 71.2104L48.3912 67.8385L53.0974 62.4425L56.8354 65.7027L56.303 66.3131L53.2508 63.6511L51.7522 65.3693L54.6913 67.9328L54.1589 68.5432L51.2198 65.9798ZM59.2968 70.5829L58.6487 70.0176C59.2471 69.3011 59.1042 68.5572 58.2199 67.7859C57.8582 67.4704 57.4945 67.2992 57.1288 67.2722C56.7675 67.2402 56.4708 67.3573 56.2385 67.6236C56.0632 67.8245 55.9883 68.0423 56.0138 68.2768C56.0487 68.5107 56.1921 68.8127 56.4442 69.1829L57.4362 70.6319C58.0617 71.5579 58.0743 72.365 57.4739 73.0533C57.0401 73.5507 56.4889 73.7821 55.8203 73.7474C55.232 73.712 54.6087 73.4072 53.9506 72.8332C53.1165 72.1058 52.7302 71.3265 52.7916 70.4955C52.8273 70.0489 53.0395 69.5926 53.4282 69.1266L54.0763 69.6919L54.0631 69.707C53.7213 70.0989 53.5894 70.519 53.6672 70.9673C53.7545 71.4149 54.0393 71.8491 54.5216 72.2697C54.9638 72.6553 55.3564 72.8695 55.6995 72.9122C56.1091 72.9599 56.4519 72.8254 56.728 72.5089C57.0786 72.1069 56.9971 71.5361 56.4835 70.7962L55.4444 69.2796C54.8987 68.4852 54.9086 67.764 55.4738 67.1159C55.9208 66.6034 56.4604 66.3752 57.0927 66.4312C57.644 66.4786 58.196 66.7434 58.7487 67.2254C59.5324 67.909 59.8933 68.6261 59.8311 69.3769C59.7948 69.8141 59.6408 70.1885 59.3691 70.5C59.356 70.515 59.3319 70.5427 59.2968 70.5829Z" fill="black"/>
</svg>
