<svg width="173" height="92" viewBox="0 0 173 92" fill="none" xmlns="http://www.w3.org/2000/svg">
<path d="M151.812 0.625L154 2.125V0.625H166.562C167.896 0.625 169.125 2.83333 170.25 7.25C169.25 7.41667 168.75 7.91667 168.75 8.75H170.25C171.708 48.5 172.438 72.5625 172.438 80.9375C171.771 84.3958 170.792 86.125 169.5 86.125H164.312C163.812 86.125 163.562 85.875 163.562 85.375C161.979 86.3333 160.521 86.8125 159.188 86.8125H155.5V84.625L156.25 83.1875H155.5C155 85.6042 154.5 86.8125 154 86.8125L152.562 86.125H150.312C150.312 85.4167 149.583 84.6667 148.125 83.875V86.8125H144.438C143.438 86.8125 142.938 86.0833 142.938 84.625H142.25L138.562 87.5625H137.812V86.125H137.062V87.5625H135.562C134.604 87.5625 134.125 86.8333 134.125 85.375C132.417 86.8333 129.458 87.5625 125.25 87.5625C125.25 86.8958 123.792 85.6667 120.875 83.875C120.875 86.3333 120.375 87.5625 119.375 87.5625C119.375 85.6042 118.646 84.625 117.188 84.625L115.688 86.8125H116.438L117.875 86.125L118.625 87.5625V88.3125H117.875L116.438 87.5625C115.479 88.0625 114.75 88.3125 114.25 88.3125V87.5625L112.75 88.3125H112C111.5 88.3125 111.25 88.0625 111.25 87.5625L109.812 88.3125H103.188L104.625 86.125C104.625 85.125 104.146 84.625 103.188 84.625V86.125L101.688 85.375V86.8125L102.438 88.3125L95.0625 89.0625V88.3125L93.5625 89.0625H92.125L93.5625 86.8125H91.375V89.0625H90.625V85.375C89.6667 85.375 89.1875 86.6042 89.1875 89.0625H86.9375V86.8125C85.9792 86.8125 85.5 87.5625 85.5 89.0625H84V87.5625L81.8125 89.0625C80.8125 89.0625 80.3125 88.0833 80.3125 86.125H79.5625C77.8542 88.5833 75.3958 89.8125 72.1875 89.8125H70C70 88.8125 69.75 88.3125 69.25 88.3125C67.6667 89.3125 66.2083 89.8125 64.875 89.8125H63.375V88.3125H62.625V89.8125C62.125 89.8125 61.875 89.5625 61.875 89.0625C59.4167 90.0208 55.75 90.5 50.875 90.5V89.8125L49.375 90.5H48.625V89.8125L49.375 86.125C48.375 86.125 47.875 87.5833 47.875 90.5H45.6875L44.1875 89.8125C44.1875 90.2708 43.9583 90.5 43.5 90.5V89.8125L42 90.5H40.5L35.375 89.8125V91.25H33.875L29.5 90.5C28.6667 91 27.4375 91.25 25.8125 91.25V90.5L24.3125 91.25H20.625C19.5417 91.25 18.5625 91 17.6875 90.5C15.7708 91.5 13.0625 92 9.5625 92C4.64583 92 2.1875 87.8333 2.1875 79.5C2.1875 68.6667 1.95833 61.5417 1.5 58.125C1.95833 58.125 2.1875 57.875 2.1875 57.375C4.1875 57.375 5.1875 60.5625 5.1875 66.9375V77.25C5.77083 82.1667 6.75 84.625 8.125 84.625L167.25 79.5C168.75 77.3333 169.5 75.6042 169.5 74.3125C168.5 48.9792 168 31.7917 168 22.75L167.25 19.0625H168.75V13.875L169.5 12.4375C167.833 12.4375 166.604 10.9583 165.812 8V7.25H166.562C166.062 6.375 165.812 5.39583 165.812 4.3125L164.312 5.0625L162.875 4.3125C162.125 6.27083 161.375 7.25 160.625 7.25H153.25L154 5.8125V5.0625H153.25C153.25 5.5625 153.021 6.29167 152.562 7.25C74.8125 10.2083 29.6042 11.6875 16.9375 11.6875C15.9792 12.1875 15.25 12.4375 14.75 12.4375C14.75 11.3125 14.5 10.3125 14 9.4375L14.75 8C14.25 7.04167 14 6.3125 14 5.8125H15.5C15.9583 5.8125 16.1875 6.04167 16.1875 6.5L21.375 5.0625C21.375 5.5625 21.625 5.8125 22.125 5.8125C22.125 5.3125 22.375 5.0625 22.875 5.0625V5.8125L24.3125 5.0625L148.875 1.375C149 2.33333 149.479 2.8125 150.312 2.8125C150.312 1.35417 150.812 0.625 151.812 0.625ZM5.1875 5.8125H5.875V8H6.625V5.8125H11.0625C12.5208 6.10417 13.25 8.0625 13.25 11.6875L11.8125 12.4375H6.625C5.66667 12.4375 5.1875 11.9375 5.1875 10.9375V5.8125ZM1.5 10.9375C1.5 11.4375 1.72917 11.6875 2.1875 11.6875C2.1875 11.1875 2.4375 10.9375 2.9375 10.9375V12.4375H3.6875V10.9375H4.4375C4.4375 11.9375 4.6875 12.4375 5.1875 12.4375C4.6875 14.3958 3.6875 15.375 2.1875 15.375V17.5625L3.6875 19.8125C3.6875 27.3542 3.9375 38.8958 4.4375 54.4375L2.9375 55.125C2.9375 54.6667 2.6875 54.4375 2.1875 54.4375C2.1875 54.8958 1.95833 55.125 1.5 55.125V50.75C1.5 49.625 1.72917 48.6458 2.1875 47.8125C1.22917 45.3125 0.75 40.875 0.75 34.5V24.9375C0.75 23.1875 0.5 20.9792 0 18.3125L0.75 16.8125C0.25 15.8958 0 15.1667 0 14.625C0.5 13.6667 0.75 12.9375 0.75 12.4375C0.25 12.4375 0 12.1875 0 11.6875L1.5 10.9375ZM56.75 11.6875C71.125 16.6042 81.4375 19.7917 87.6875 21.25H90.625L98.75 15.375H99.5C100.458 15.375 100.938 16.1042 100.938 17.5625C99.9792 19.1458 99.5 20.375 99.5 21.25H105.375C105.375 22.25 104.875 22.75 103.875 22.75H98V24.9375H106.125V25.6875C99.5 26.6458 95.3125 27.125 93.5625 27.125H84.75L77.375 26.4375L78.125 27.875H73.6875C72.6875 27.875 72.1875 27.3958 72.1875 26.4375C72.6875 26.4375 72.9375 26.1875 72.9375 25.6875H70V27.875H68.5625C68.5625 25.9167 67.5625 24.4375 65.5625 23.4375H64.125V24.9375H62.625C60.0833 24.9375 58.6042 24.2083 58.1875 22.75V20.5L56.75 19.8125L56 21.25C56.5 21.25 56.75 21.5 56.75 22H54.5L55.25 20.5V19.8125L50.875 15.375V13.875L56.75 11.6875ZM148.125 24.1875H150.312C151.312 24.3542 151.812 24.8542 151.812 25.6875H150.312C150.479 26.6458 150.979 27.125 151.812 27.125V25.6875H154L153.25 27.125H154L154.75 25.6875C154.25 25.6875 154 25.4375 154 24.9375L155.5 24.1875H156.938L159.188 25.6875V24.1875C160.146 24.3542 160.625 24.8542 160.625 25.6875L159.188 27.875H160.625V30.125H159.938V28.625H159.188L158.438 31.5625C158.938 31.5625 159.188 31.8125 159.188 32.3125C158.688 32.3125 158.438 32.5625 158.438 33.0625H159.938V31.5625H161.375L160.625 33.0625C161.125 33.0625 161.375 33.3125 161.375 33.8125C160.292 33.8125 159.562 34.7917 159.188 36.75C159.188 37.25 159.438 37.5 159.938 37.5L159.188 41.125V42.625L160.625 44.8125H159.938C160.396 48.2708 160.875 50 161.375 50C161.375 50.5 161.125 50.75 160.625 50.75L161.375 55.875V57.375C161.375 59.375 161.125 61.3333 160.625 63.25L162.125 73.5625L161.375 78H160.625V76.5L159.188 77.25C158.312 76.75 157.333 76.5 156.25 76.5C156.25 77 156 77.25 155.5 77.25C153.542 75.7917 152.562 74.5625 152.562 73.5625H151.812V78L150.312 77.25C150.312 78.25 149.833 78.75 148.875 78.75C148.875 77.75 148.375 77.25 147.375 77.25C147.375 77.75 147.125 78 146.625 78V77.25L147.375 72.125C146.875 72.125 146.625 71.875 146.625 71.375H147.375L146.625 69.875C146.625 69.375 146.875 69.125 147.375 69.125L146.625 65.5V59.5625L147.375 58.125C146.875 58.125 146.625 57.875 146.625 57.375H147.375L146.625 55.875V55.125C146.75 52.7083 147.25 51.5 148.125 51.5L147.375 50L148.125 48.5L146.625 47.8125V49.25H145.875V41.875C147.292 41.875 148.292 39.9167 148.875 36L147.375 36.75V36C147.875 35.0417 148.125 34.3125 148.125 33.8125L145.875 35.25V30.125C145.875 26.5 146.625 24.5208 148.125 24.1875ZM150.312 27.875V29.375H151.062V27.875H150.312ZM140 27.875L140.75 29.375H140L20.625 31.5625H10.3125V30.8125C75.9792 29.3542 118.479 28.625 137.812 28.625C138.771 28.125 139.5 27.875 140 27.875ZM157.688 33.8125V35.25H158.438V33.8125H157.688ZM151.812 34.5V38.1875H152.562V34.5H151.812ZM113.5 36.75H118.625C121.583 37.0417 123.062 37.7708 123.062 38.9375V41.125L120.875 44.125C121.875 44.3333 122.854 45.5625 123.812 47.8125L122.312 48.5H120.875C119.375 45.0833 117.896 43.375 116.438 43.375C116.438 46.7917 115.938 48.5 114.938 48.5H113.5V36.75ZM124.562 36.75H126.75C127.25 42.9167 127.5 46.6042 127.5 47.8125H124.562V36.75ZM130.438 36.75H134.875C135.583 36.75 136.312 37.4792 137.062 38.9375V40.4375H135.562L133.375 38.9375H131.188V40.4375C135.604 40.4375 137.812 41.8958 137.812 44.8125C137.062 46.8125 136.312 47.8125 135.562 47.8125H130.438C129.729 47.8125 129 47.0625 128.25 45.5625V44.125H131.188V45.5625H134.875V44.8125C134.875 44.1458 132.896 43.1667 128.938 41.875L128.25 40.4375V38.9375C128.25 38.2292 128.979 37.5 130.438 36.75ZM92.875 37.5H100.188C100.896 37.5 101.646 38.2292 102.438 39.6875V41.875C102.438 42.9167 100.229 44.1458 95.8125 45.5625V48.5H93.5625V38.9375L92.875 37.5ZM106.125 37.5H107.562C109.312 38.25 111.042 41.9167 112.75 48.5H109.812V46.3125H104.625C104.625 47.7708 104.146 48.5 103.188 48.5H100.938C103.562 41.1667 105.292 37.5 106.125 37.5ZM75.875 38.1875L77.375 40.4375C77.375 41.8958 77.125 42.625 76.625 42.625L77.375 46.3125V48.5C77.375 49.5 76.875 50 75.875 50H73.6875C72.2292 49.5 71.5 48.0208 71.5 45.5625C71.625 44.6042 72.1042 44.125 72.9375 44.125L72.1875 42.625V38.9375L75.875 38.1875ZM80.3125 38.1875H81.8125C83.2708 38.6875 84 40.1667 84 42.625C84 43.0833 83.0208 44.5625 81.0625 47.0625H84V50H78.125V47.8125C80.5833 44.6042 81.8125 42.1458 81.8125 40.4375H80.3125V41.875H78.125V40.4375C78.125 39.7292 78.8542 38.9792 80.3125 38.1875ZM116.438 38.9375V41.875L120.125 41.125V40.4375C120.125 39.4375 119.625 38.9375 118.625 38.9375H116.438ZM148.875 38.9375V40.4375H150.312V38.9375H148.875ZM39.8125 38.9375C41.7708 38.9375 42.75 41.1458 42.75 45.5625H43.5C44.8333 41.1458 46.0625 38.9375 47.1875 38.9375H47.875L48.625 45.5625C52.0833 45.5625 53.8125 43.8542 53.8125 40.4375C53.9375 39.4375 54.4167 38.9375 55.25 38.9375H56.75C58.2083 39.4375 58.9375 40.9167 58.9375 43.375V46.3125L58.1875 50H55.25L52.3125 47.0625H50.125C49.125 47.0625 48.625 48.0417 48.625 50H46.4375C46.4375 48.75 45.2083 48.0208 42.75 47.8125C42 49.7708 41.25 50.75 40.5 50.75H39.0625L36.125 47.8125H33.875L30.9375 50.75H28.75C27.75 50.75 27.25 50.25 27.25 49.25V47.0625H28L30.1875 48.5H30.9375V47.0625C30.9375 46.0625 30.2083 45.5625 28.75 45.5625V44.8125L30.1875 42.625V41.875H29.5C28.5417 42.375 27.7917 42.625 27.25 42.625V41.125C27.4167 40.1667 27.9167 39.6875 28.75 39.6875H30.9375C31.9375 39.8542 32.4375 40.3333 32.4375 41.125V43.375L31.6875 44.8125L33.1875 45.5625C36.1042 45.5625 37.5625 43.6042 37.5625 39.6875C38.1042 39.6875 38.8542 39.4375 39.8125 38.9375ZM61.875 38.9375H63.375C64.125 38.9375 64.8542 39.9167 65.5625 41.875H64.125C63.1667 41.375 62.4167 41.125 61.875 41.125V42.625C64.3333 42.75 65.5625 43.4792 65.5625 44.8125V47.8125C65.5625 48.5208 64.8333 49.25 63.375 50H61.875C61.1667 50 60.4375 49.2708 59.6875 47.8125V41.125C59.6875 40.4583 60.4167 39.7292 61.875 38.9375ZM95.8125 39.6875V42.625L99.5 41.875V39.6875H95.8125ZM22.875 39.6875H24.3125C25.7708 40.1875 26.5 41.6667 26.5 44.125V48.5C26.5 49.2083 25.7708 49.9583 24.3125 50.75H22.875C22.1667 50.75 21.4167 50 20.625 48.5V41.875C20.625 41.1667 21.375 40.4375 22.875 39.6875ZM73.6875 41.875V42.625H75.1875V40.4375C74.1875 40.5625 73.6875 41.0417 73.6875 41.875ZM39.0625 41.125V47.0625C39.2292 48.0208 39.7083 48.5 40.5 48.5V42.625C40.5 41.625 40.0208 41.125 39.0625 41.125ZM55.25 41.125V47.8125H56.75V41.125H55.25ZM106.125 42.625V44.125H107.562V41.125C106.604 41.2917 106.125 41.7917 106.125 42.625ZM22.875 41.875V48.5H24.3125V41.875H22.875ZM45.6875 44.125C45.6875 44.625 45.4375 45.3542 44.9375 46.3125H46.4375V44.125H45.6875ZM61.875 44.8125V47.8125H63.375V44.8125H61.875ZM74.4375 44.8125L73.6875 46.3125V47.8125H74.4375C75.3958 47.8125 75.875 47.3125 75.875 46.3125C75.875 45.3125 75.3958 44.8125 74.4375 44.8125ZM3.6875 55.125H4.4375V57.375H3.6875V55.125ZM128.25 56.625C130.667 56.9167 131.875 58.3958 131.875 61.0625C131.417 62.5208 130.938 63.25 130.438 63.25C131.896 65.7083 132.625 67.4375 132.625 68.4375H131.188L127.5 64V68.4375H118.625V57.375H124.562V59.5625H120.125C120.125 61.0625 121.604 61.8125 124.562 61.8125V62.5C124.562 63.5 123.333 64 120.875 64V66.1875C123.083 66.1875 124.542 66.4375 125.25 66.9375V57.375C126.375 57.375 127.375 57.125 128.25 56.625ZM110.562 57.375V69.125H109.062V66.9375L108.312 59.5625C107.521 60.0625 106.292 60.3125 104.625 60.3125V62.5H107.562V64.75H104.625V69.125H103.188L102.438 64V58.125H106.875L110.562 57.375ZM113.5 57.375H115.688C116.396 57.375 117.125 58.1042 117.875 59.5625V61.0625H115.688V59.5625H114.938C114.229 59.5625 113.5 60.5417 112.75 62.5C113.375 65.4583 114.104 66.9375 114.938 66.9375C115.938 65.7292 116.438 64.75 116.438 64C117.396 64.1667 117.875 64.6667 117.875 65.5V66.9375C117.875 67.6458 117.146 68.375 115.688 69.125H114.25C112.25 68.3333 111.25 66.625 111.25 64V61.8125C111.583 58.8542 112.333 57.375 113.5 57.375ZM91.375 58.125H92.875C93.625 58.125 94.6042 59.1042 95.8125 61.0625V65.5C95.8125 68.4167 94.3333 69.875 91.375 69.875C89.4167 69.0833 88.4375 67.375 88.4375 64.75V61.0625C88.4375 60.2708 89.4167 59.2917 91.375 58.125ZM96.5625 58.125H101.688V60.3125H98V61.0625C98 62.0208 99.2292 62.5 101.688 62.5V64.75H98.75V69.125H96.5625V58.125ZM70 58.8125V70.625H68.5625V61.8125H65.5625V69.125L66.3125 70.625H64.125V61.8125C62.1667 61.8125 61.1875 61.3125 61.1875 60.3125V59.5625H66.3125L70 58.8125ZM75.1875 58.8125C75.9375 58.8125 76.9167 59.8125 78.125 61.8125V67.6875C78.125 68.4375 77.1458 69.4167 75.1875 70.625H73.6875C71.7292 69.8333 70.75 68.125 70.75 65.5V63.25C70.75 60.2917 72.2292 58.8125 75.1875 58.8125ZM78.875 58.8125H79.5625C80.5625 58.8125 81.5625 60.5417 82.5625 64H83.25V58.8125H84.75L85.5 67.6875V69.875H83.25C82.2917 66.4583 81.3125 64.75 80.3125 64.75V65.5L81.0625 69.875H78.875V58.8125ZM127.5 59.5625V61.8125H128.25C129.208 61.8125 129.688 61.3125 129.688 60.3125V59.5625H127.5ZM44.1875 59.5625C46.1875 60.3125 47.1875 61.0625 47.1875 61.8125V64H46.4375L44.1875 62.5H42.75C42.75 63.0417 42.5 63.7917 42 64.75C42.5 67.6667 43.2292 69.125 44.1875 69.125H45.6875V67.6875H44.1875V66.1875C44.3542 65.2292 44.8542 64.75 45.6875 64.75H46.4375C47.3958 64.875 47.875 65.3542 47.875 66.1875V69.125C47.875 69.8333 47.1458 70.5833 45.6875 71.375H44.9375C41.9792 71.375 40.5 69.8958 40.5 66.9375V62.5C40.75 61.5 41.9792 60.5208 44.1875 59.5625ZM49.375 59.5625H50.875L54.5 60.3125V63.25C54.5 64.375 54.2708 65.3542 53.8125 66.1875C54.2708 67.1458 54.5 67.8958 54.5 68.4375H56C56 67.4792 56.5 64.5208 57.5 59.5625H58.9375C59.6042 59.5625 61.0833 63.25 63.375 70.625H61.875C60.9167 70.625 60.4375 69.8958 60.4375 68.4375H57.5C57.5 70.3958 56.2708 71.375 53.8125 71.375C52.6458 68.4167 51.6667 66.9375 50.875 66.9375H50.125L50.875 70.625L49.375 71.375H48.625V61.8125L47.875 60.3125L49.375 59.5625ZM90.625 61.8125V66.1875C90.7917 67.1875 91.2917 67.6875 92.125 67.6875C93.5833 67.1875 94.3125 65.7083 94.3125 63.25C93.5625 61.2917 92.8333 60.3125 92.125 60.3125C91.125 60.4792 90.625 60.9792 90.625 61.8125ZM28 60.3125L28.75 61.8125V72.125H27.25V66.9375H26.5C26.5 68.4375 26.2708 70.1667 25.8125 72.125H25.0625C24.0625 72.125 23.5625 70.6458 23.5625 67.6875H22.875V72.125H21.375V68.4375L20.625 61.0625H23.5625C24.0625 63.0208 24.3125 64.7292 24.3125 66.1875H25.0625C25.0625 62.5625 26.0417 60.6042 28 60.3125ZM29.5 60.3125H30.9375C31.9375 60.3125 32.6875 62.0417 33.1875 65.5H33.875V60.3125H36.875V64L37.5625 71.375H35.375V67.6875H34.625C34.625 70.6458 34.1458 72.125 33.1875 72.125H32.4375V69.125H31.6875C31.6875 71.125 31.1875 72.125 30.1875 72.125L29.5 70.625V60.3125ZM37.5625 60.3125H39.8125V71.375H38.3125C37.8125 66.4583 37.5625 62.7708 37.5625 60.3125ZM72.1875 64C72.8542 66.9583 73.8542 68.4375 75.1875 68.4375L76.625 64.75C76 62.2917 75.2708 61.0625 74.4375 61.0625C73.9375 61.0625 73.1875 62.0417 72.1875 64ZM18.4375 61.0625H19.875L20.625 69.875V72.125H18.4375V61.0625ZM50.125 61.8125V63.25L50.875 64.75C51.7917 64.25 52.5208 64 53.0625 64V63.25C53.0625 62.2917 52.5625 61.8125 51.5625 61.8125H50.125ZM58.1875 64V66.1875H59.6875C59.1875 65.2292 58.9375 64.5 58.9375 64H58.1875ZM143.688 77.25V78.75H142.938C124.396 78.75 81.4167 79.4792 14 80.9375V79.5C31.5 79.5 74.7292 78.75 143.688 77.25ZM163.562 82.4375L162.875 83.875V84.625H163.562C163.562 84.125 163.812 83.3958 164.312 82.4375H163.562Z" fill="#FFF6E4"/>
</svg>
