<svg width="175" height="96" viewBox="0 0 175 96" fill="none" xmlns="http://www.w3.org/2000/svg">
<path d="M152.236 1.14615L154.453 2.60194L154.423 1.10224L166.983 0.850074C168.316 0.82331 169.589 3.00653 170.803 7.39972C169.806 7.58643 169.317 8.09636 169.333 8.92953L170.833 8.89942C173.089 48.6121 174.301 72.6552 174.469 81.0285C173.872 84.4995 172.928 86.248 171.636 86.2739L166.45 86.378C165.95 86.388 165.695 86.1431 165.685 85.6432C164.121 86.6331 162.673 87.1415 161.34 87.1682L157.653 87.2423L157.609 85.0552L158.33 83.6029L157.58 83.618C157.129 86.0442 156.653 87.2623 156.153 87.2724L154.702 86.6139L152.453 86.659C152.438 85.9508 151.694 85.2156 150.22 84.4534L150.279 87.3903L146.593 87.4643C145.593 87.4844 145.078 86.7654 145.049 85.3074L144.362 85.3212L140.734 88.3321L139.984 88.3472L139.955 86.9099L139.205 86.925L139.234 88.3622L137.734 88.3923C136.776 88.4116 136.283 87.6921 136.253 86.2341C134.575 87.7264 131.631 88.5148 127.424 88.5993C127.411 87.9328 125.928 86.7331 122.976 85.0004C123.025 87.4582 122.55 88.6972 121.55 88.7172C121.511 86.7593 120.762 85.795 119.304 85.8242L117.848 88.0414L118.598 88.0264L120.022 87.3101L120.8 88.7323L120.815 89.4821L120.066 89.4972L118.613 88.7762C117.665 89.2953 116.941 89.5599 116.441 89.57L116.426 88.8201L114.942 89.6001L114.192 89.6151C113.692 89.6252 113.437 89.3802 113.427 88.8803L112.005 89.659L105.381 89.792L106.774 87.5761C106.754 86.5763 106.265 86.086 105.307 86.1053L105.337 87.605L103.822 86.8852L103.851 88.3224L104.631 89.8071L97.2727 90.705L97.2576 89.9551L95.773 90.7351L94.3358 90.7639L95.7278 88.4855L93.5408 88.5294L93.5859 90.779L92.8361 90.794L92.7621 87.1073C91.8039 87.1265 91.3495 88.365 91.3989 90.8229L89.1493 90.868L89.1042 88.6185C88.146 88.6377 87.682 89.3972 87.7121 90.8969L86.2124 90.927L86.1823 89.4273L84.0253 90.9709C83.0255 90.991 82.506 90.0221 82.4667 88.0641L81.7168 88.0792C80.0582 90.5713 77.625 91.8496 74.4173 91.914L72.2303 91.9579C72.2102 90.9581 71.9502 90.4632 71.4503 90.4732C69.8874 91.5048 68.4394 92.034 67.1063 92.0608L65.6066 92.0909L65.5765 90.5912L64.8267 90.6062L64.8568 92.1059C64.3569 92.116 64.1019 91.871 64.0919 91.3711C61.6533 92.3786 57.997 92.9313 53.1229 93.0291L53.1091 92.3418L51.6232 93.0592L50.8734 93.0743L50.8596 92.3869L51.5354 88.6851C50.5356 88.7052 50.065 90.1733 50.1235 93.0894L47.9365 93.1333L46.423 92.476C46.4322 92.9342 46.2077 93.168 45.7494 93.1772L45.7356 92.4898L44.2497 93.2073L42.75 93.2374L37.6123 92.6529L37.6411 94.0901L36.1414 94.1202L31.7522 93.4582C30.9291 93.9748 29.7052 94.2494 28.0805 94.2821L28.0655 93.5322L26.5808 94.3122L22.8941 94.3862C21.811 94.4079 20.827 94.1776 19.9421 93.6953C18.0459 94.7336 15.3482 95.2878 11.8489 95.3581C6.93319 95.4568 4.39172 91.3403 4.22444 83.0086C4.00699 72.1775 3.63485 65.0585 3.10803 61.6517C3.56627 61.6425 3.79037 61.388 3.78033 60.8881C5.77993 60.848 6.84371 64.0147 6.97167 70.3885L7.17867 80.6989C7.86058 85.6028 8.8889 88.041 10.2636 88.0134L169.254 79.6954C170.71 77.499 171.425 75.7552 171.399 74.4638C169.891 49.1556 169.046 31.9816 168.864 22.9418L168.041 19.2701L169.54 19.24L169.436 14.0535L170.157 12.6012C168.491 12.6347 167.232 11.1805 166.381 8.23864L166.366 7.48879L167.116 7.47374C166.599 6.60895 166.329 5.635 166.307 4.55189L164.823 5.33184L163.37 4.61085C162.66 6.58384 161.93 7.57787 161.18 7.59292L153.806 7.74096L154.527 6.28869L154.512 5.53884L153.762 5.5539C153.772 6.0538 153.558 6.78742 153.119 7.75476C75.4439 12.2732 30.2744 14.6595 17.6103 14.9137C16.6622 15.4329 15.9382 15.6975 15.4383 15.7075C15.4157 14.5827 15.1457 13.5879 14.6282 12.7231L15.3492 11.2709C14.8301 10.3228 14.5655 9.59878 14.5555 9.09888L16.0552 9.06877C16.5134 9.05957 16.7471 9.28409 16.7563 9.74233L21.9139 8.20099C21.9239 8.70089 22.1789 8.94582 22.6788 8.93579C22.6688 8.43589 22.9137 8.18092 23.4136 8.17088L23.4287 8.92073L24.8508 8.14203L149.314 1.95496C149.458 2.91059 149.947 3.38004 150.78 3.36332C150.751 1.90528 151.236 1.16622 152.236 1.14615ZM5.74473 9.27577L6.43209 9.26197L6.476 11.449L7.22585 11.434L7.18194 9.24691L11.6185 9.15784C13.0824 9.42018 13.8508 11.3635 13.9235 14.9877L12.5014 15.7665L7.31492 15.8706C6.35678 15.8898 5.86767 15.3995 5.8476 14.3997L5.74473 9.27577ZM2.16084 14.4738C2.17088 14.9737 2.40502 15.219 2.86326 15.2098C2.85322 14.7099 3.09815 14.4549 3.59805 14.4449L3.62816 15.9446L4.37801 15.9295L4.3479 14.4298L5.09775 14.4148C5.11782 15.4146 5.37781 15.9095 5.87771 15.8994C5.41712 17.8674 4.43698 18.8665 2.93728 18.8966L2.98119 21.0836L4.52605 23.3031C4.67743 30.8432 5.15905 42.3775 5.97092 57.906L4.48502 58.6235C4.47582 58.1653 4.22127 57.9412 3.72137 57.9512C3.73057 58.4094 3.50605 58.6432 3.04781 58.6524L2.95999 54.2782C2.93741 53.1535 3.14687 52.1699 3.58839 51.3275C2.58007 48.8473 2.01192 44.4203 1.88396 38.0466L1.69201 28.486C1.65689 26.7363 1.36261 24.5335 0.809182 21.8774L1.52892 20.3626C1.01062 19.4562 0.746037 18.7322 0.735164 18.1906C1.21583 17.2224 1.45114 16.4884 1.4411 15.9885C0.941205 15.9985 0.686237 15.7536 0.6762 15.2537L2.16084 14.4738ZM57.4148 14.1146C71.8856 18.7417 82.26 21.7216 88.538 23.0542L91.4749 22.9952L99.4803 16.9583L100.23 16.9432C101.188 16.924 101.682 17.6434 101.711 19.1014C100.785 20.7037 100.331 21.9422 100.348 22.817L106.222 22.6991C106.242 23.6989 105.752 24.2089 104.752 24.2289L98.8785 24.3469L98.9224 26.5339L107.046 26.3708L107.061 27.1207C100.456 28.2118 96.2794 28.7749 94.5297 28.81L85.719 28.9869L78.3317 28.4476L79.1104 29.8698L74.6738 29.9588C73.674 29.9789 73.1645 29.5099 73.1452 28.5517C73.6451 28.5417 73.8901 28.2867 73.88 27.7868L70.9431 27.8458L70.987 30.0329L69.5498 30.0617C69.5105 28.1038 68.481 26.645 66.4613 25.6853L65.0241 25.7142L65.0542 27.2139L63.5545 27.244C61.0134 27.295 59.5199 26.5957 59.074 25.146L59.0289 22.8965L57.5779 22.2379L56.8569 23.6902C57.3568 23.6802 57.6117 23.9251 57.6218 24.425L55.3722 24.4702L56.092 22.9554L56.0782 22.2681L51.615 17.9193L51.5849 16.4196L57.4148 14.1146ZM149.022 24.7779L151.209 24.734C152.212 24.8806 152.722 25.3704 152.739 26.2036L151.239 26.2337C151.425 27.1885 151.935 27.6575 152.768 27.6408L152.739 26.2036L154.926 26.1597L154.205 27.612L154.955 27.5969L155.676 26.1446C155.176 26.1547 154.921 25.9097 154.911 25.4098L156.396 24.6299L157.833 24.601L160.113 26.0556L160.083 24.5559C161.044 24.7033 161.533 25.1935 161.55 26.0267L160.157 28.2426L161.594 28.2138L161.639 30.4633L160.952 30.4771L160.921 28.9774L160.172 28.9925L159.481 31.9444C159.981 31.9344 160.236 32.1793 160.246 32.6792C159.746 32.6893 159.501 32.9442 159.511 33.4441L161.011 33.414L160.98 31.9143L162.418 31.8855L161.698 33.4002C162.198 33.3902 162.453 33.6351 162.463 34.135C161.38 34.1568 160.67 35.1504 160.335 37.1158C160.345 37.6157 160.6 37.8607 161.1 37.8506L160.423 41.49L160.453 42.9896L161.934 45.1479L161.246 45.1617C161.774 48.6101 162.288 50.3293 162.788 50.3193C162.798 50.8192 162.553 51.0741 162.053 51.0842L162.906 56.1931L162.936 57.6928C162.976 59.6924 162.765 61.6553 162.304 63.5816L164.011 73.862L163.35 78.3136L162.6 78.3287L162.57 76.829L161.148 77.6077C160.263 77.1253 159.279 76.895 158.196 76.9168C158.206 77.4167 157.961 77.6717 157.461 77.6817C155.474 76.263 154.47 75.0537 154.45 74.0539L153.7 74.069L153.789 78.5056L152.274 77.7858C152.295 78.7856 151.825 79.2951 150.867 79.3144C150.847 78.3146 150.337 77.8247 149.338 77.8448C149.348 78.3447 149.103 78.5996 148.603 78.6097L148.588 77.8598L149.235 72.7208C148.735 72.7309 148.48 72.4859 148.47 71.986L149.22 71.971L148.44 70.4863C148.43 69.9864 148.675 69.7315 149.174 69.7214L148.352 66.1122L148.233 60.1759L148.954 58.7236C148.454 58.7337 148.199 58.4887 148.189 57.9888L148.939 57.9738L148.159 56.4891L148.144 55.7393C148.22 53.3206 148.696 52.1025 149.571 52.0849L148.791 50.6003L149.51 49.0855L147.997 48.4283L148.026 49.8655L147.276 49.8805L147.128 42.507C148.544 42.4786 149.505 40.5006 150.009 36.573L148.525 37.3529L148.51 36.6031C148.99 35.6349 149.226 34.9009 149.215 34.401L146.995 35.8834L146.892 30.7594C146.819 27.1351 147.529 25.1413 149.022 24.7779ZM151.283 28.4208L151.313 29.9205L152.063 29.9054L152.033 28.4057L151.283 28.4208ZM140.973 28.6278L141.753 30.1124L141.003 30.1275L21.696 34.7107L11.3856 34.9177L11.3705 34.1679C76.9947 31.3917 119.471 29.8096 138.801 29.4215C139.749 28.9024 140.473 28.6378 140.973 28.6278ZM158.776 34.209L158.805 35.6462L159.555 35.6312L159.526 34.194L158.776 34.209ZM152.916 35.0143L152.99 38.7011L153.74 38.686L153.666 34.9993L152.916 35.0143ZM114.656 38.0329L119.78 37.93C122.744 38.1623 124.237 38.8616 124.261 40.028L124.305 42.2151L122.178 45.2584C123.182 45.4466 124.186 46.6559 125.189 48.8862L123.703 49.6036L122.266 49.6325C120.697 46.2466 119.184 44.5683 117.726 44.5976C117.795 48.0136 117.329 49.7316 116.329 49.7517L114.892 49.7805L114.656 38.0329ZM125.717 37.8109L127.904 37.7669C128.527 43.9223 128.851 47.6041 128.876 48.8122L125.939 48.8711L125.717 37.8109ZM131.59 37.6929L136.027 37.6039C136.735 37.5896 137.479 38.304 138.258 39.747L138.288 41.2467L136.788 41.2768L134.571 39.821L132.384 39.8649L132.414 41.3646C136.83 41.276 139.067 42.6897 139.126 45.6058C138.416 47.6204 137.686 48.6353 136.937 48.6503L131.813 48.7532C131.104 48.7674 130.36 48.0322 129.58 46.5476L129.551 45.1103L132.488 45.0514L132.517 46.4886L136.204 46.4146L136.189 45.6647C136.176 44.9982 134.177 44.059 130.194 42.847L129.477 41.4236L129.447 39.9239C129.433 39.2157 130.148 38.472 131.59 37.6929ZM94.0506 39.1968L101.362 39.05C102.07 39.0358 102.834 39.7497 103.655 41.1919L103.699 43.3789C103.72 44.4204 101.537 45.6936 97.1494 47.1987L97.2083 50.1356L94.9588 50.1807L94.7668 40.6202L94.0506 39.1968ZM107.298 38.9308L108.735 38.9019C110.5 39.6167 112.302 43.2479 114.142 49.7956L111.206 49.8546L111.162 47.6675L105.975 47.7716C106.004 49.2297 105.54 49.9683 104.582 49.9875L102.332 50.0327C104.81 42.6482 106.465 38.9475 107.298 38.9308ZM77.0678 40.2254L78.6127 42.4448C78.642 43.9028 78.4067 44.6369 77.9068 44.6469L78.7306 48.3186L78.7745 50.5057C78.7946 51.5055 78.3047 52.0154 77.305 52.0355L75.1179 52.0794C73.6498 51.6088 72.8911 50.1445 72.8418 47.6867C72.9475 46.726 73.417 46.2373 74.2501 46.2206L73.4702 44.736L73.3961 41.0492L77.0678 40.2254ZM81.5044 40.1363L83.0041 40.1062C84.4722 40.5768 85.2309 42.041 85.2803 44.4989C85.2895 44.9571 84.3402 46.4556 82.4324 48.9944L85.3694 48.9355L85.4283 51.8724L79.5545 51.9903L79.5106 49.8033C81.904 46.5462 83.0836 44.0637 83.0493 42.3557L81.5496 42.3858L81.5785 43.823L79.3914 43.8669L79.3626 42.4297C79.3483 41.7215 80.0623 40.9571 81.5044 40.1363ZM117.637 40.161L117.696 43.0979L121.368 42.274L121.354 41.5867C121.334 40.5869 120.824 40.097 119.824 40.1171L117.637 40.161ZM150.068 39.5099L150.098 41.0096L151.536 40.9807L151.505 39.481L150.068 39.5099ZM41.0277 41.6991C42.9856 41.6598 44.0089 43.848 44.0976 48.2638L44.8474 48.2487C46.0918 43.8062 47.2764 41.5736 48.4012 41.551L49.0885 41.5372L49.9714 48.1458C53.429 48.0764 55.1235 46.3337 55.055 42.9178C55.1599 41.9154 55.6289 41.4059 56.4621 41.3892L57.9617 41.3591C59.4298 41.8297 60.1885 43.294 60.2379 45.7518L60.2968 48.6887L59.621 52.3905L56.6841 52.4495L53.6882 49.5715L51.5012 49.6154C50.5014 49.6355 50.0211 50.6245 50.0604 52.5825L47.8734 52.6264C47.8483 51.3766 46.6047 50.6723 44.1427 50.5133C43.4322 52.4863 42.702 53.4803 41.9521 53.4954L40.5149 53.5243L37.5191 50.6463L35.2695 50.6915L32.3916 53.6873L30.2045 53.7313C29.2047 53.7513 28.6948 53.2615 28.6747 52.2617L28.6308 50.0746L29.3806 50.0595L31.5965 51.4528L32.3464 51.4378L32.3175 50.0006C32.2975 49.0008 31.5584 48.5155 30.1004 48.5448L30.0853 47.7949L31.4786 45.579L31.4636 44.8292L30.7762 44.843C29.8281 45.3621 29.0833 45.6271 28.5417 45.638L28.5116 44.1383C28.659 43.1768 29.1493 42.6877 29.9824 42.671L32.1695 42.6271C33.1726 42.7736 33.6822 43.2427 33.6981 44.0342L33.7432 46.2837L33.0222 47.736L34.537 48.4557C37.4531 48.3972 38.8718 46.41 38.7932 42.4941C39.3347 42.4832 40.0796 42.2182 41.0277 41.6991ZM63.0857 41.2562L64.5854 41.2261C65.3353 41.2111 66.0839 42.1754 66.8314 44.1191L65.3942 44.148C64.4261 43.6673 63.6712 43.4324 63.1296 43.4433L63.1597 44.943C65.6201 45.0186 66.8636 45.723 66.8904 47.056L66.9506 50.0554C66.9648 50.7636 66.2505 51.5073 64.8075 52.2864L63.3078 52.3165C62.5996 52.3307 61.8559 51.6163 61.0768 50.1733L60.9426 43.4872C60.9292 42.8207 61.6436 42.077 63.0857 41.2562ZM97.0314 41.3249L97.0904 44.2618L100.762 43.4379L100.718 41.2508L97.0314 41.3249ZM24.1086 42.7889L25.5458 42.7601C27.0139 43.2307 27.7726 44.6949 27.822 47.1527L27.9098 51.5269C27.924 52.2351 27.21 52.9995 25.7679 53.8203L24.3307 53.8492C23.6225 53.8634 22.8576 53.1286 22.036 51.6448L21.903 45.0211C21.8888 44.3129 22.624 43.5689 24.1086 42.7889ZM74.9548 43.956L74.9699 44.7059L76.4696 44.6758L76.4256 42.4887C75.4284 42.6337 74.9381 43.1229 74.9548 43.956ZM40.3217 43.9012L40.4409 49.8375C40.6268 50.7923 41.1155 51.2617 41.907 51.2458L41.789 45.372C41.769 44.3722 41.2799 43.882 40.3217 43.9012ZM56.506 43.5763L56.6402 50.2624L58.1399 50.2323L58.0057 43.5462L56.506 43.5763ZM107.401 44.0548L107.431 45.5545L108.868 45.5256L108.808 42.5262C107.853 42.7121 107.384 43.2216 107.401 44.0548ZM24.1525 44.976L24.2855 51.5996L25.7227 51.5708L25.5897 44.9471L24.1525 44.976ZM47.0056 46.7676C47.0156 47.2675 46.7803 48.0015 46.2997 48.9697L47.7994 48.9396L47.7555 46.7525L47.0056 46.7676ZM63.2036 47.13L63.2639 50.1294L64.7636 50.0993L64.7033 47.0999L63.2036 47.13ZM75.7636 46.8779L75.0439 48.3926L75.074 49.8923L75.8238 49.8773C76.782 49.858 77.251 49.3485 77.2309 48.3487C77.2109 47.3489 76.7218 46.8586 75.7636 46.8779ZM5.23487 58.6084L5.98472 58.5934L6.02988 60.8429L5.28003 60.858L5.23487 58.6084ZM129.802 57.6078C132.224 57.8509 133.462 59.3055 133.516 61.9717C133.087 63.4389 132.622 64.1775 132.122 64.1876C133.63 66.6162 134.394 68.3303 134.414 69.3301L132.976 69.359L129.201 64.9964L129.29 69.433L120.416 69.6111L120.194 58.5509L126.131 58.4317L126.175 60.6188L121.738 60.7078C121.768 62.2075 123.262 62.9277 126.22 62.8683L126.234 63.5557C126.254 64.5555 125.035 65.08 122.577 65.1294L122.621 67.3164C124.829 67.2721 126.292 67.4928 127.01 67.9785L126.818 58.4179C127.943 58.3953 128.938 58.1253 129.802 57.6078ZM112.133 58.7127L112.369 70.4603L110.87 70.4905L110.826 68.3034L109.928 60.9449C109.146 61.4607 107.922 61.7353 106.256 61.7688L106.3 63.9559L109.237 63.8969L109.282 66.1464L106.345 66.2054L106.433 70.5795L104.996 70.6084L104.143 65.4995L104.025 59.6257L108.462 59.5366L112.133 58.7127ZM115.07 58.6538L117.257 58.6098C117.966 58.5956 118.709 59.31 119.488 60.753L119.519 62.2527L117.331 62.2966L117.301 60.7969L116.552 60.812C115.843 60.8262 115.134 61.8198 114.423 63.7928C115.108 66.738 115.866 68.2022 116.7 68.1855C117.675 66.9573 118.155 65.9683 118.14 65.2185C119.102 65.3658 119.591 65.8561 119.608 66.6893L119.636 68.1265C119.651 68.8347 118.936 69.5784 117.493 70.3575L116.056 70.3863C114.041 69.635 113.007 67.9471 112.954 65.3226L112.91 63.1355C113.184 60.1711 113.904 58.6772 115.07 58.6538ZM92.9649 59.8477L94.4646 59.8176C95.2145 59.8025 96.2131 60.7619 97.4605 62.6955L97.5496 67.1322C97.6081 70.0482 96.1585 71.536 93.2008 71.5953C91.2269 70.8431 90.2137 69.1548 90.161 66.5303L90.087 62.8436C90.0711 62.0521 91.0304 61.0534 92.9649 59.8477ZM98.1514 59.7436L103.275 59.6407L103.319 61.8278L99.6325 61.9018L99.6475 62.6516C99.6668 63.6098 100.905 64.0642 103.363 64.0148L103.408 66.2644L100.471 66.3233L100.559 70.6975L98.3722 70.7414L98.1514 59.7436ZM71.608 60.9641L71.8451 72.7742L70.4079 72.8031L70.231 63.9924L67.2316 64.0526L67.3784 71.3636L68.1584 72.8483L65.9713 72.8922L65.7944 64.0814C63.8365 64.1208 62.8475 63.6405 62.8274 62.6407L62.8124 61.8909L67.9363 61.788L71.608 60.9641ZM76.7945 60.86C77.5443 60.8449 78.5434 61.8251 79.7916 63.8004L79.9095 69.6742C79.9246 70.4241 78.9653 71.4227 77.0316 72.6701L75.5319 72.7002C73.5581 71.948 72.5448 70.2597 72.4921 67.6352L72.4469 65.3857C72.3876 62.4279 73.8367 60.9194 76.7945 60.86ZM80.4812 60.786L81.1686 60.7722C82.1684 60.7521 83.2029 62.4609 84.2721 65.8984L84.9595 65.8846L84.8554 60.6982L86.3551 60.6681L87.283 69.5262L87.327 71.7133L85.0774 71.7584C84.0507 68.3617 83.0374 66.6734 82.0376 66.6934L82.0527 67.4433L82.8904 71.8023L80.7033 71.8463L80.4812 60.786ZM129.111 60.5598L129.157 62.8093L129.907 62.7943C130.865 62.775 131.334 62.2655 131.314 61.2657L131.299 60.5159L129.111 60.5598ZM45.8158 62.2321C47.8304 62.9418 48.8453 63.6716 48.8603 64.4214L48.9042 66.6085L48.1544 66.6235L45.8747 65.169L44.4375 65.1979C44.4484 65.7394 44.2135 66.4943 43.7328 67.4625C44.2913 70.3685 45.0496 71.8119 46.0077 71.7927L47.5074 71.7626L47.4786 70.3254L45.9789 70.3555L45.9488 68.8558C46.0962 67.8943 46.5864 67.4052 47.4196 67.3884L48.1695 67.3734C49.1301 67.4791 49.6188 67.9486 49.6355 68.7817L49.6945 71.7187C49.7087 72.4268 48.9947 73.1913 47.5526 74.0121L46.8027 74.0272C43.845 74.0865 42.3364 72.6374 42.2771 69.6796L42.188 65.243C42.4179 64.2382 43.6271 63.2346 45.8158 62.2321ZM51.0022 62.128L52.5019 62.0979L56.1413 62.775L56.2002 65.7119C56.2228 66.8366 56.0133 67.8202 55.5718 68.6626C56.0493 69.6115 56.2935 70.3568 56.3043 70.8983L57.804 70.8682C57.7848 69.9101 58.2253 66.9423 59.1256 61.9649L60.5628 61.936C61.2293 61.9226 62.7822 65.5797 65.2215 72.9072L63.7218 72.9373C62.7636 72.9566 62.2699 72.2372 62.2407 70.7791L59.3037 70.8381C59.3431 72.796 58.1338 73.7997 55.676 73.849C54.4501 70.9147 53.4415 69.4555 52.65 69.4714L51.9001 69.4864L52.724 73.1581L51.2393 73.9381L50.4895 73.9531L50.2976 64.3926L49.5176 62.9079L51.0022 62.128ZM92.2891 63.5495L92.3769 67.9236C92.5636 68.9201 93.0735 69.41 93.9067 69.3932C95.3547 68.8641 96.054 67.3706 96.0047 64.9127C95.2155 62.9698 94.4669 62.0055 93.7587 62.0197C92.7622 62.2064 92.2724 62.7164 92.2891 63.5495ZM29.6466 63.3069L30.4266 64.7915L30.6336 75.1019L29.1339 75.1321L29.0297 69.9456L28.2799 69.9607C28.31 71.4604 28.1156 73.1938 27.6966 75.1609L26.9468 75.176C25.947 75.196 25.4174 73.7272 25.358 70.7695L24.6707 70.7833L24.7597 75.2199L23.26 75.25L23.186 71.5632L22.2881 64.2048L25.225 64.1458C25.7643 66.0937 26.0485 67.7967 26.0778 69.2547L26.8276 69.2397C26.7549 65.6154 27.6945 63.6378 29.6466 63.3069ZM31.1463 63.2768L32.5835 63.2479C33.5833 63.2278 34.3679 64.9416 34.9372 68.3892L35.6245 68.3754L35.5204 63.189L38.5198 63.1287L38.5938 66.8155L39.4292 74.1752L37.2422 74.2191L37.1681 70.5324L36.4183 70.5474C36.4777 73.5051 36.0283 74.9936 35.0702 75.0129L34.3203 75.0279L34.2601 72.0285L33.5102 72.0436C33.5504 74.0432 33.0706 75.053 32.0708 75.0731L31.3533 73.5872L31.1463 63.2768ZM39.2072 63.1149L41.4567 63.0698L41.6788 74.13L40.1791 74.1601C39.5805 69.2545 39.2565 65.5728 39.2072 63.1149ZM73.8992 66.1067C74.6251 69.051 75.6546 70.5098 76.9877 70.4831L78.3509 66.7674C77.6767 64.3222 76.923 63.1079 76.0898 63.1246C75.5899 63.1346 74.8597 64.1287 73.8992 66.1067ZM20.1011 64.2487L21.5383 64.2198L22.465 73.0155L22.5102 75.265L20.3231 75.3089L20.1011 64.2487ZM51.7972 64.3625L51.8261 65.7997L52.6061 67.2843C53.5125 66.766 54.2365 66.5014 54.7781 66.4906L54.763 65.7407C54.7438 64.7826 54.2343 64.3135 53.2345 64.3336L51.7972 64.3625ZM59.902 66.3877L59.9459 68.5747L61.4456 68.5446C60.9265 67.5965 60.6619 66.8725 60.6519 66.3726L59.902 66.3877ZM145.651 77.9188L145.681 79.4185L144.931 79.4336C126.393 79.8057 83.4372 81.3975 16.0634 84.2087L16.0346 82.7715C33.531 82.4203 76.7364 80.8027 145.651 77.9188ZM165.626 82.7063L164.967 84.1573L164.982 84.9072L165.67 84.8934C165.66 84.3935 165.895 83.6594 166.376 82.6913L165.626 82.7063Z" fill="#C22E2E"/>
</svg>
