<svg width="174" height="142" viewBox="0 0 174 142" fill="none" xmlns="http://www.w3.org/2000/svg">
<path d="M142.222 0.984375C142.222 2.77799 142.624 4.38607 143.428 5.80859H139.81V8.2207L142.222 7.01465C142.222 7.81868 142.624 8.2207 143.428 8.2207C143.428 6.86003 145.84 5.65397 150.664 4.60254L151.87 7.01465H149.458V10.6328C151.066 10.6328 151.87 9.42676 151.87 7.01465H153.076V14.251H154.282C154.282 11.8389 155.086 10.6328 156.694 10.6328L160.312 17.8691H162.725L161.519 15.457V14.251C165.539 17.1579 167.549 20.776 167.549 25.1055H168.755L171.167 23.8994L169.961 29.9297V31.1357L171.167 33.5479H168.755V34.7539H171.167C169.312 38.7741 168.105 40.7842 167.549 40.7842C168.538 44.8044 169.744 46.8145 171.167 46.8145L169.961 44.4023V41.9902H172.373V55.2568C170.208 55.2568 168.6 58.875 167.549 66.1113H163.931V67.3174H166.343V69.7295L163.931 68.5234C162.384 69.3275 161.178 69.7295 160.312 69.7295V72.0488H161.519L163.931 70.9355V72.0488L162.725 74.4609C161.673 73.6569 159.663 73.2549 156.694 73.2549V74.4609L154.282 73.2549V74.4609L156.694 78.0791C152.365 81.2952 148.345 82.9033 144.634 82.9033L142.222 79.2852C139.006 79.9655 137.397 80.7695 137.397 81.6973C138.201 83.3053 138.604 84.5114 138.604 85.3154L131.367 81.6973C130.563 83.3053 130.161 84.5114 130.161 85.3154H124.131L126.543 81.6973L122.925 79.2852H119.307L115.688 81.6973H113.276V79.2852H115.688V78.0791C108.452 77.4606 104.834 76.2546 104.834 74.4609H108.452V73.2549C102.638 70.9046 99.0202 69.7295 97.5977 69.7295L98.8037 67.3174C97.5667 67.3174 95.5566 64.1012 92.7734 57.6689H95.1855L93.9795 55.2568L91.5674 56.4629H90.3613V55.2568L91.5674 52.8447C90.7633 52.8447 90.3613 52.4427 90.3613 51.6387H91.5674L90.3613 49.2266V45.6084C90.3613 44.8044 90.7633 44.4023 91.5674 44.4023L90.3613 41.9902V35.96L91.5674 33.5479H90.3613C90.3613 30.1462 92.7734 28.1361 97.5977 27.5176C97.5977 25.9095 96.7936 25.1055 95.1855 25.1055C97.5977 17.8691 99.6077 14.251 101.216 14.251H103.628L102.422 16.6631H104.834C104.834 12.6429 106.442 10.6328 109.658 10.6328V9.42676H107.246C107.246 11.0348 106.442 11.8389 104.834 11.8389H103.628V10.6328C103.628 9.45768 104.834 8.25163 107.246 7.01465C108.669 7.81868 110.277 8.2207 112.07 8.2207V5.80859H113.276L115.688 7.01465V2.19043L118.101 3.39648C119.523 2.59245 121.131 2.19043 122.925 2.19043C122.925 2.99447 123.327 3.39648 124.131 3.39648L122.925 5.80859V7.01465C124.533 7.01465 125.337 5.40658 125.337 2.19043C129.357 2.19043 131.367 4.20052 131.367 8.2207H132.573V2.19043H134.985L138.604 4.60254C138.604 3.42741 139.81 2.22135 142.222 0.984375ZM134.985 7.01465L133.779 9.42676H134.985L136.191 7.01465H134.985ZM144.634 10.6328H148.252V8.2207H147.046C145.438 8.4681 144.634 9.27214 144.634 10.6328ZM159.106 9.42676H160.312V11.8389H159.106V9.42676ZM112.07 11.8389V13.0449H114.482V11.8389H112.07ZM120.513 13.0449V15.457H121.719V13.0449H120.513ZM131.367 13.0449V14.251C132.233 14.251 133.439 14.653 134.985 15.457V14.251L132.573 13.0449H131.367ZM125.337 14.251V15.457H127.749V14.251H125.337ZM141.016 14.251V17.8691C142.438 17.0651 144.046 16.6631 145.84 16.6631V15.457C144.046 15.457 142.438 15.055 141.016 14.251ZM131.367 15.457V17.8691H132.573V15.457H131.367ZM154.282 16.6631V17.8691H156.694V16.6631H154.282ZM157.9 21.4873H160.312V19.0752C158.704 19.3226 157.9 20.1266 157.9 21.4873ZM133.779 20.2812L132.573 22.6934H133.779C133.779 21.8893 134.181 21.4873 134.985 21.4873C134.985 22.2913 135.387 22.6934 136.191 22.6934V21.4873L133.779 20.2812ZM104.834 23.8994C105.081 25.5075 105.885 26.3115 107.246 26.3115V23.8994H104.834ZM109.658 25.1055V27.5176H110.864V25.1055H109.658ZM150.664 25.1055C152.272 27.0228 153.076 28.6309 153.076 29.9297H154.282V26.3115L151.87 25.1055H150.664ZM167.549 26.3115L166.343 28.7236V29.9297H167.549C167.549 29.0638 167.951 27.8577 168.755 26.3115H167.549ZM115.688 28.7236V29.9297H119.307V28.7236H115.688ZM106.04 29.9297V33.5479L108.452 34.7539V33.5479C107.648 32.0016 107.246 30.7956 107.246 29.9297H106.04ZM97.5977 34.7539V35.96C99.2057 35.96 100.01 35.1559 100.01 33.5479V32.3418C98.4017 32.5892 97.5977 33.3932 97.5977 34.7539ZM155.488 38.3721L157.9 39.5781V35.96C156.292 36.2074 155.488 37.0114 155.488 38.3721ZM161.519 35.96V38.3721H162.725V35.96H161.519ZM100.01 37.166V39.5781H101.216V37.166H100.01ZM93.9795 38.3721V39.5781H96.3916V38.3721H93.9795ZM171.167 37.166H173.579V39.5781H171.167V37.166ZM102.422 39.5781V41.9902H103.628V39.5781H102.422ZM150.664 40.7842L149.458 43.1963H150.664L151.87 40.7842H150.664ZM92.7734 41.9902V44.4023H93.9795V41.9902H92.7734ZM147.046 43.1963V45.6084H148.252V43.1963H147.046ZM101.216 44.4023V45.6084H103.628V44.4023H101.216ZM116.895 44.4023V45.6084H119.307V44.4023H116.895ZM151.87 44.4023V45.6084L154.282 46.8145V45.6084L151.87 44.4023ZM107.246 45.6084V48.0205H108.452V45.6084H107.246ZM157.9 46.8145C157.9 49.7832 157.096 52.1953 155.488 54.0508L157.9 55.2568C158.704 53.6488 159.106 52.4427 159.106 51.6387V46.8145H157.9ZM92.7734 48.0205V50.4326C94.3815 50.4326 95.1855 49.6286 95.1855 48.0205H92.7734ZM120.513 49.2266V51.6387H121.719V49.2266H120.513ZM136.191 54.0508V55.2568H139.81V54.0508H136.191ZM151.87 54.0508V55.2568C152.674 56.8031 153.076 58.0091 153.076 58.875H154.282C154.282 58.0091 154.684 56.8031 155.488 55.2568C154.622 55.2568 153.416 54.8548 151.87 54.0508ZM159.106 55.2568L157.9 57.6689C159.447 56.8649 160.653 56.4629 161.519 56.4629V55.2568H159.106ZM165.137 55.2568C165.137 57.236 164.333 59.2461 162.725 61.2871L165.137 62.4932C165.137 59.277 166.343 57.6689 168.755 57.6689C168.755 56.0609 167.951 55.2568 166.343 55.2568H165.137ZM110.864 60.0811V61.2871H113.276V60.0811H110.864ZM120.513 62.4932V63.6992H122.925V62.4932H120.513ZM98.8037 63.6992C99.0511 65.3073 99.8551 66.1113 101.216 66.1113V63.6992H98.8037ZM24.1211 66.1113H26.5332L37.3877 78.0791L80.7129 73.2549C83.929 73.2549 86.7432 75.265 89.1553 79.2852V80.4912C84.7021 83.6455 81.084 87.2637 78.3008 91.3457H77.0947C73.0745 91.3457 71.0645 90.1396 71.0645 87.7275H65.127C63.5189 87.9749 62.7148 88.779 62.7148 90.1396C63.5189 90.1396 63.9209 90.5417 63.9209 91.3457L61.5088 92.5518H60.3027L61.5088 90.1396L56.6846 87.7275L55.4785 90.1396C56.2826 90.1396 56.6846 90.5417 56.6846 91.3457H54.2725L51.8604 90.1396C50.2523 90.9437 49.0462 91.3457 48.2422 91.3457L47.0361 88.9336C47.8402 88.9336 48.2422 88.5316 48.2422 87.7275C39.3978 87.7275 28.9453 84.9134 16.8848 79.2852H12.0605V76.873L14.4727 78.0791H19.2969V76.873C6.43229 74.4609 0 72.0798 0 69.7295H1.20605C3.43262 71.6468 11.473 73.626 25.3271 75.667V74.4609L24.1211 67.3174V66.1113ZM124.131 68.5234V69.7295H127.749V67.3174C126.203 68.1214 124.997 68.5234 124.131 68.5234ZM157.9 67.3174V68.5234H160.312V67.3174H157.9ZM150.664 69.7295V72.0488H151.87V69.7295H150.664ZM125.337 73.2549V75.667C126.883 74.863 128.089 74.4609 128.955 74.4609V73.2549H125.337ZM112.07 74.4609V75.667H114.482V74.4609H112.07ZM144.634 78.0791V80.4912H148.252C148.252 79.6872 148.654 78.4811 149.458 76.873H148.252C146.706 77.6771 145.5 78.0791 144.634 78.0791ZM118.101 80.4912H120.513C122.059 81.2952 123.265 81.6973 124.131 81.6973V84.1094H122.925C120.946 82.5013 119.338 81.6973 118.101 81.6973V80.4912ZM131.367 82.9033H132.573V85.3154H131.367V82.9033ZM101.216 87.7275H104.834C105.638 94.1598 106.844 97.376 108.452 97.376C109.442 91.3766 111.05 88.1605 113.276 87.7275H114.482V88.9336L113.276 103.406H110.864V102.2L112.07 94.9639V93.7578H110.864L108.452 102.2H107.246C105.638 102.2 104.834 99.7881 104.834 94.9639H103.628C102.824 99.2314 102.422 101.644 102.422 102.2H100.01L101.216 93.7578V87.7275ZM115.688 88.9336H126.543V91.3457H118.101V94.9639H125.337V97.376H118.101V100.994H124.131L126.543 102.2C128.955 99.6025 130.161 97.5924 130.161 96.1699C128.553 93.5723 127.749 91.1602 127.749 88.9336H130.161L131.367 93.7578H132.573C134.181 93.7578 134.985 92.5518 134.985 90.1396H138.604L133.779 97.376L137.397 103.406V104.612H136.191L131.367 99.7881L127.749 104.612L121.719 103.406H115.688V88.9336ZM139.81 90.1396H142.222C141.418 95.4587 141.016 100.685 141.016 105.818C139.408 105.818 138.604 105.014 138.604 103.406V102.2L139.81 90.1396ZM147.046 91.3457H151.87C153.478 91.5931 154.282 92.3971 154.282 93.7578V96.1699H151.87V93.7578H148.252C147.448 93.7578 146.242 95.3659 144.634 98.582C145.809 101.798 147.015 103.406 148.252 103.406H149.458L153.076 100.994H154.282V102.2C154.282 103.375 153.076 104.581 150.664 105.818H147.046C145.376 105.509 143.768 103.499 142.222 99.7881C143.335 94.1598 144.943 91.3457 147.046 91.3457ZM159.106 92.5518H165.137C166.992 92.5518 168.198 95.3659 168.755 100.994C167.209 104.705 165.601 106.715 163.931 107.024H159.106C156.694 106.22 155.488 103.808 155.488 99.7881C155.983 94.9639 157.189 92.5518 159.106 92.5518ZM157.9 97.376V102.2C158.148 103.808 158.952 104.612 160.312 104.612H162.725C163.9 104.612 165.106 103.004 166.343 99.7881C166.343 98.8604 165.137 96.8503 162.725 93.7578C159.508 94.9948 157.9 96.2008 157.9 97.376ZM38.5938 104.612H44.624C44.624 105.416 47.8402 115.467 54.2725 134.764H50.6543L44.624 125.115H33.7695L31.3574 133.558H26.5332V132.352C34.5736 114.91 38.5938 105.664 38.5938 104.612ZM56.6846 105.818H66.333C75.9196 105.818 80.7129 110.643 80.7129 120.291C80.7129 130.743 75.9196 135.97 66.333 135.97L55.4785 134.764C55.4785 134.083 55.8805 124.435 56.6846 105.818ZM85.5371 107.024L100.01 108.23H104.834V113.055L98.8037 111.849H89.1553V120.291H102.422V125.115H101.216C94.1032 124.311 89.681 123.909 87.9492 123.909V137.176H83.125C83.125 132.352 83.929 122.301 85.5371 107.024ZM41.0059 109.437C38.5938 115.807 37.3877 119.827 37.3877 121.497H44.624V120.291C43.016 115.096 42.2119 111.478 42.2119 109.437H41.0059ZM61.5088 109.437V110.643C60.7048 118.868 60.3027 125.301 60.3027 129.939V131.146H71.0645C73.1673 131.146 74.7754 127.929 75.8887 121.497V119.085C75.8887 112.653 71.0954 109.437 61.5088 109.437ZM113.276 109.437H119.307C123.327 111.539 125.337 114.756 125.337 119.085V125.115C125.337 131.919 122.925 136.743 118.101 139.588H115.688C109.256 139.588 106.04 136.372 106.04 129.939V122.703C106.04 116.395 108.452 111.972 113.276 109.437ZM137.397 110.643C143.83 110.643 147.046 113.859 147.046 120.291C147.046 123.012 142.222 128.239 132.573 135.97L144.634 137.176H145.84V140.794H137.397C129.357 140.794 125.337 139.99 125.337 138.382C125.337 136.465 130.563 131.238 141.016 122.703C141.82 121.281 142.222 119.673 142.222 117.879C142.222 116.704 141.016 115.498 138.604 114.261H136.191C134.521 114.632 132.913 116.642 131.367 120.291C128.955 119.487 127.749 118.683 127.749 117.879C129.419 113.055 132.635 110.643 137.397 110.643ZM109.658 128.733C111.328 133.558 112.936 135.97 114.482 135.97H115.688C118.657 135.97 120.667 130.743 121.719 120.291C120.605 115.467 118.595 113.055 115.688 113.055C111.668 114.354 109.658 119.58 109.658 128.733ZM157.9 111.849C163.529 112.962 166.343 114.57 166.343 116.673V122.703L163.931 126.321V127.527C166.343 127.527 167.549 129.537 167.549 133.558C167.549 136.774 165.539 139.588 161.519 142H156.694C151.066 142 148.252 139.186 148.252 133.558L150.664 132.352H151.87C152.427 136.372 153.633 138.382 155.488 138.382H159.106C160.282 138.382 161.488 137.176 162.725 134.764V131.146C162.725 129.29 160.715 128.084 156.694 127.527C156.694 128.331 156.292 128.733 155.488 128.733V125.115C160.312 125.115 162.725 122.703 162.725 117.879C160.127 116.271 158.117 115.467 156.694 115.467C155.086 117.446 154.282 119.054 154.282 120.291H149.458V117.879C151.87 113.859 154.684 111.849 157.9 111.849Z" fill="#FFF6E4"/>
</svg>
